<mxfile host="65bd71144e">
    <diagram id="QUSuAPqb3YD-Z2VtuKKH" name="Page-1">
        <mxGraphModel dx="2273" dy="1405" grid="0" gridSize="10" guides="1" tooltips="1" connect="1" arrows="1" fold="1" page="1" pageScale="1" pageWidth="5200" pageHeight="2200" background="#62627A" math="0" shadow="0">
            <root>
                <mxCell id="0"/>
                <mxCell id="1" parent="0"/>
                <mxCell id="113" style="edgeStyle=orthogonalEdgeStyle;curved=1;html=1;entryX=0;entryY=0.25;entryDx=0;entryDy=0;fontSize=12;fontColor=#FFFFFF;" parent="1" source="10" target="17" edge="1">
                    <mxGeometry relative="1" as="geometry"/>
                </mxCell>
                <mxCell id="114" style="edgeStyle=orthogonalEdgeStyle;curved=1;html=1;entryX=0;entryY=0.25;entryDx=0;entryDy=0;fontSize=12;fontColor=#FFFFFF;" parent="1" source="10" target="47" edge="1">
                    <mxGeometry relative="1" as="geometry"/>
                </mxCell>
                <mxCell id="115" style="edgeStyle=orthogonalEdgeStyle;curved=1;html=1;entryX=0;entryY=0.25;entryDx=0;entryDy=0;fontSize=12;fontColor=#FFFFFF;" parent="1" source="10" target="18" edge="1">
                    <mxGeometry relative="1" as="geometry"/>
                </mxCell>
                <mxCell id="10" value="Games Started&lt;br&gt;no of players: 2" style="whiteSpace=wrap;html=1;fontSize=13;fillColor=#FFFFCC;strokeColor=none;align=left;verticalAlign=top;fontColor=#000000;" parent="1" vertex="1">
                    <mxGeometry x="235" y="1413" width="153" height="71" as="geometry"/>
                </mxCell>
                <mxCell id="441" style="edgeStyle=orthogonalEdgeStyle;curved=1;html=1;entryX=0;entryY=0.5;entryDx=0;entryDy=0;" parent="1" source="13" target="439" edge="1">
                    <mxGeometry relative="1" as="geometry">
                        <mxPoint x="1163.666666666667" y="1094.5" as="targetPoint"/>
                    </mxGeometry>
                </mxCell>
                <mxCell id="13" value="Luck Tried:&lt;br&gt;diceRolled: 1,2,3,4,5,6&lt;br&gt;meldsKept:&amp;nbsp;&lt;br&gt;bankedPoints: false" style="whiteSpace=wrap;html=1;fontSize=13;fillColor=#FFFFCC;strokeColor=none;align=left;verticalAlign=top;fontColor=#000000;" parent="1" vertex="1">
                    <mxGeometry x="927" y="1404" width="153" height="71" as="geometry"/>
                </mxCell>
                <mxCell id="223" style="edgeStyle=orthogonalEdgeStyle;curved=1;html=1;entryX=0;entryY=0.25;entryDx=0;entryDy=0;fontSize=12;fontColor=#FFFFFF;exitX=1;exitY=0.5;exitDx=0;exitDy=0;" parent="1" source="445" target="176" edge="1">
                    <mxGeometry relative="1" as="geometry">
                        <mxPoint x="2975.84" y="1564.5555555555557" as="sourcePoint"/>
                    </mxGeometry>
                </mxCell>
                <mxCell id="81" style="edgeStyle=orthogonalEdgeStyle;html=1;fontSize=12;fontColor=#FFFFFF;curved=1;exitX=1;exitY=0.25;exitDx=0;exitDy=0;entryX=0;entryY=0.5;entryDx=0;entryDy=0;" parent="1" source="17" target="110" edge="1">
                    <mxGeometry relative="1" as="geometry">
                        <mxPoint x="912" y="680" as="targetPoint"/>
                    </mxGeometry>
                </mxCell>
                <mxCell id="17" value="Turn points:&lt;br&gt;0" style="whiteSpace=wrap;html=1;fontSize=13;fillColor=#99FF99;strokeColor=none;align=left;verticalAlign=top;labelBackgroundColor=none;fontColor=#000000;" parent="1" vertex="1">
                    <mxGeometry x="641" y="1166" width="153" height="71" as="geometry"/>
                </mxCell>
                <mxCell id="78" style="edgeStyle=orthogonalEdgeStyle;html=1;fontSize=12;fontColor=#FFFFFF;curved=1;exitX=1;exitY=0.5;exitDx=0;exitDy=0;entryX=0;entryY=0.5;entryDx=0;entryDy=0;" parent="1" source="18" target="110" edge="1">
                    <mxGeometry relative="1" as="geometry">
                        <mxPoint x="919" y="670" as="targetPoint"/>
                    </mxGeometry>
                </mxCell>
                <mxCell id="131" style="edgeStyle=orthogonalEdgeStyle;curved=1;html=1;entryX=0;entryY=0.5;entryDx=0;entryDy=0;fontSize=12;fontColor=#FFFFFF;exitX=1;exitY=0.5;exitDx=0;exitDy=0;" parent="1" source="618" target="130" edge="1">
                    <mxGeometry relative="1" as="geometry"/>
                </mxCell>
                <mxCell id="165" style="edgeStyle=orthogonalEdgeStyle;curved=1;html=1;exitX=0;exitY=1;exitDx=0;exitDy=0;fontSize=12;fontColor=#FFFFFF;" parent="1" source="97" target="132" edge="1">
                    <mxGeometry relative="1" as="geometry"/>
                </mxCell>
                <mxCell id="97" value="" style="whiteSpace=wrap;html=1;movable=1;resizable=1;rotatable=1;deletable=1;editable=1;connectable=1;" parent="1" vertex="1">
                    <mxGeometry x="2825" y="530" width="360" height="280" as="geometry"/>
                </mxCell>
                <mxCell id="106" value="&lt;font color=&quot;#ffffff&quot;&gt;Game Score&lt;br&gt;Player 1: 0&lt;br&gt;&lt;/font&gt;&lt;span style=&quot;color: rgb(255, 255, 255);&quot;&gt;Player 2: 0&lt;/span&gt;&lt;font color=&quot;#ffffff&quot;&gt;&lt;br&gt;&lt;/font&gt;" style="whiteSpace=wrap;html=1;rounded=0;strokeColor=#000000;fontColor=#808080;fillColor=#333333;align=left;verticalAlign=top;" parent="1" vertex="1">
                    <mxGeometry x="3065" y="555.8" width="90" height="122.22" as="geometry"/>
                </mxCell>
                <mxCell id="107" value="Current Player" style="rounded=0;whiteSpace=wrap;html=1;fontSize=12;fillColor=none;" parent="1" vertex="1">
                    <mxGeometry x="2845.68" y="555" width="99.32" height="22.97" as="geometry"/>
                </mxCell>
                <mxCell id="108" value="1" style="whiteSpace=wrap;html=1;fontSize=12;" parent="1" vertex="1">
                    <mxGeometry x="2945" y="555" width="32.27" height="22.94" as="geometry"/>
                </mxCell>
                <mxCell id="109" value="Roll Dice" style="rounded=1;whiteSpace=wrap;html=1;strokeColor=#23445d;fontSize=10;fontColor=#808080;fillColor=#333333;" parent="1" vertex="1">
                    <mxGeometry x="2845" y="648.02" width="60" height="20" as="geometry"/>
                </mxCell>
                <mxCell id="125" style="edgeStyle=orthogonalEdgeStyle;curved=1;html=1;exitX=0;exitY=1;exitDx=0;exitDy=0;fontSize=12;fontColor=#FFFFFF;" parent="1" source="110" target="124" edge="1">
                    <mxGeometry relative="1" as="geometry"/>
                </mxCell>
                <mxCell id="110" value="3" style="group;movable=1;resizable=1;rotatable=1;deletable=1;editable=1;connectable=1;fillColor=#60a917;fontColor=#ffffff;strokeColor=#2D7600;align=right;" parent="1" vertex="1" connectable="0">
                    <mxGeometry x="919" y="530" width="360" height="280" as="geometry"/>
                </mxCell>
                <mxCell id="57" value="" style="whiteSpace=wrap;html=1;movable=0;resizable=0;rotatable=0;deletable=0;editable=0;connectable=0;" parent="110" vertex="1">
                    <mxGeometry width="360" height="280" as="geometry"/>
                </mxCell>
                <mxCell id="71" value="" style="group" parent="110" vertex="1" connectable="0">
                    <mxGeometry x="20" y="83" width="170" height="20" as="geometry"/>
                </mxCell>
                <mxCell id="63" value="1" style="whiteSpace=wrap;html=1;aspect=fixed;fontColor=#000000;fillColor=#FFFFFF;strokeColor=#000000;rounded=1;container=0;" parent="71" vertex="1">
                    <mxGeometry width="20" height="20" as="geometry"/>
                </mxCell>
                <mxCell id="64" value="2" style="whiteSpace=wrap;html=1;aspect=fixed;fontColor=#000000;fillColor=#FFFFFF;strokeColor=#000000;rounded=1;container=0;" parent="71" vertex="1">
                    <mxGeometry x="30" width="20" height="20" as="geometry"/>
                </mxCell>
                <mxCell id="65" value="3" style="whiteSpace=wrap;html=1;aspect=fixed;fontColor=#000000;fillColor=#FFFFFF;strokeColor=#000000;rounded=1;container=0;" parent="71" vertex="1">
                    <mxGeometry x="60" width="20" height="20" as="geometry"/>
                </mxCell>
                <mxCell id="66" value="4" style="whiteSpace=wrap;html=1;aspect=fixed;fontColor=#000000;fillColor=#FFFFFF;strokeColor=#000000;rounded=1;container=0;" parent="71" vertex="1">
                    <mxGeometry x="90" width="20" height="20" as="geometry"/>
                </mxCell>
                <mxCell id="67" value="5" style="whiteSpace=wrap;html=1;aspect=fixed;fontColor=#000000;fillColor=#FFFFFF;strokeColor=#000000;rounded=1;container=0;" parent="71" vertex="1">
                    <mxGeometry x="120" width="20" height="20" as="geometry"/>
                </mxCell>
                <mxCell id="68" value="6" style="whiteSpace=wrap;html=1;aspect=fixed;fontColor=#000000;fillColor=#FFFFFF;strokeColor=#000000;rounded=1;container=0;" parent="71" vertex="1">
                    <mxGeometry x="150" width="20" height="20" as="geometry"/>
                </mxCell>
                <mxCell id="75" value="&lt;font color=&quot;#ffffff&quot;&gt;Game Score&lt;br&gt;Player 1: 0&lt;br&gt;&lt;/font&gt;&lt;span style=&quot;color: rgb(255, 255, 255);&quot;&gt;Player 2: 0&lt;/span&gt;&lt;font color=&quot;#ffffff&quot;&gt;&lt;br&gt;&lt;/font&gt;" style="whiteSpace=wrap;html=1;rounded=0;strokeColor=#2D7600;fontColor=#ffffff;fillColor=#60a917;align=left;verticalAlign=top;" parent="110" vertex="1">
                    <mxGeometry x="240" y="25.799999999999997" width="90" height="122.22" as="geometry"/>
                </mxCell>
                <mxCell id="76" value="Current Player" style="rounded=0;whiteSpace=wrap;html=1;fontSize=12;fillColor=none;" parent="110" vertex="1">
                    <mxGeometry x="20.67999999999995" y="25" width="99.32" height="22.97" as="geometry"/>
                </mxCell>
                <mxCell id="77" value="1" style="whiteSpace=wrap;html=1;fontSize=12;fillColor=#60a917;fontColor=#ffffff;strokeColor=#2D7600;" parent="110" vertex="1">
                    <mxGeometry x="120" y="25" width="32.27" height="22.94" as="geometry"/>
                </mxCell>
                <mxCell id="226" value="Roll Dice" style="rounded=1;whiteSpace=wrap;html=1;strokeColor=#001DBC;fontSize=10;fontColor=#ffffff;fillColor=#0050ef;" parent="110" vertex="1">
                    <mxGeometry x="20" y="118.02000000000001" width="60" height="20" as="geometry"/>
                </mxCell>
                <mxCell id="227" value="Pick Dice" style="rounded=1;whiteSpace=wrap;html=1;strokeColor=#23445d;fontSize=10;fontColor=#808080;fillColor=#333333;verticalAlign=middle;gradientColor=none;" parent="110" vertex="1">
                    <mxGeometry x="86.26999999999998" y="118.02000000000001" width="60" height="20" as="geometry"/>
                </mxCell>
                <mxCell id="313" value="Turn Points:" style="rounded=0;whiteSpace=wrap;html=1;fontSize=12;fillColor=none;strokeColor=none;" parent="110" vertex="1">
                    <mxGeometry x="21.680000000000064" y="182" width="80.41" height="22.97" as="geometry"/>
                </mxCell>
                <mxCell id="314" value="0" style="whiteSpace=wrap;html=1;fontSize=12;align=left;fillColor=#60a917;strokeColor=#2D7600;fontColor=#ffffff;" parent="110" vertex="1">
                    <mxGeometry x="109.08999999999969" y="182" width="65.59" height="22.94" as="geometry"/>
                </mxCell>
                <mxCell id="111" value="" style="group;movable=1;resizable=1;rotatable=1;deletable=1;editable=1;connectable=1;" parent="1" vertex="1" connectable="0">
                    <mxGeometry x="222" y="530" width="360" height="280" as="geometry"/>
                </mxCell>
                <mxCell id="4" value="" style="whiteSpace=wrap;html=1;container=0;" parent="111" vertex="1">
                    <mxGeometry width="360" height="280" as="geometry"/>
                </mxCell>
                <mxCell id="72" value="Start Game" style="rounded=1;whiteSpace=wrap;html=1;fontSize=16;fillColor=#0050ef;fontColor=#ffffff;strokeColor=#001DBC;container=0;" parent="111" vertex="1">
                    <mxGeometry x="21.40885117493474" y="25.762047781569976" width="131.59268929503918" height="21.979522184300343" as="geometry"/>
                </mxCell>
                <mxCell id="73" value="Players" style="rounded=0;whiteSpace=wrap;html=1;fontSize=12;fillColor=none;container=0;" parent="111" vertex="1">
                    <mxGeometry x="21.409999999999997" y="54.74000000000001" width="98.59" height="22.97" as="geometry"/>
                </mxCell>
                <mxCell id="74" value="2" style="whiteSpace=wrap;html=1;fontSize=12;container=0;fillColor=#0050ef;fontColor=#ffffff;strokeColor=#001DBC;" parent="111" vertex="1">
                    <mxGeometry x="120" y="54.74000000000001" width="33" height="22.94" as="geometry"/>
                </mxCell>
                <mxCell id="112" style="edgeStyle=orthogonalEdgeStyle;curved=1;html=1;fontSize=12;fontColor=#FFFFFF;exitX=0.25;exitY=1;exitDx=0;exitDy=0;" parent="1" source="4" target="438" edge="1">
                    <mxGeometry relative="1" as="geometry"/>
                </mxCell>
                <mxCell id="126" style="edgeStyle=orthogonalEdgeStyle;curved=1;html=1;fontSize=12;fontColor=#FFFFFF;exitX=0.5;exitY=1;exitDx=0;exitDy=0;entryX=0.5;entryY=0;entryDx=0;entryDy=0;" parent="1" source="124" target="13" edge="1">
                    <mxGeometry relative="1" as="geometry">
                        <mxPoint x="986" y="1360" as="targetPoint"/>
                    </mxGeometry>
                </mxCell>
                <mxCell id="124" value="Roll Dice" style="whiteSpace=wrap;html=1;fontSize=13;fillColor=#1ba1e2;strokeColor=#006EAF;align=left;verticalAlign=top;labelBackgroundColor=none;fontColor=#ffffff;" parent="1" vertex="1">
                    <mxGeometry x="926" y="890" width="153" height="71" as="geometry"/>
                </mxCell>
                <mxCell id="727" style="edgeStyle=orthogonalEdgeStyle;curved=1;html=1;entryX=0;entryY=0.5;entryDx=0;entryDy=0;" parent="1" source="130" target="699" edge="1">
                    <mxGeometry relative="1" as="geometry"/>
                </mxCell>
                <mxCell id="130" value="Generated Values:&lt;br&gt;2,3,2,5,1,5" style="whiteSpace=wrap;html=1;fontSize=13;fillColor=#99FF99;strokeColor=none;align=left;verticalAlign=top;labelBackgroundColor=none;fontColor=#000000;" parent="1" vertex="1">
                    <mxGeometry x="2128" y="1075" width="153" height="71" as="geometry"/>
                </mxCell>
                <mxCell id="167" style="edgeStyle=orthogonalEdgeStyle;curved=1;html=1;fontSize=12;fontColor=#FFFFFF;entryX=0.5;entryY=0;entryDx=0;entryDy=0;" parent="1" source="132" target="445" edge="1">
                    <mxGeometry relative="1" as="geometry">
                        <mxPoint x="2899.333333333334" y="1529" as="targetPoint"/>
                    </mxGeometry>
                </mxCell>
                <mxCell id="132" value="Pick Die" style="whiteSpace=wrap;html=1;fontSize=13;fillColor=#1ba1e2;strokeColor=#006EAF;align=left;verticalAlign=top;labelBackgroundColor=none;fontColor=#ffffff;" parent="1" vertex="1">
                    <mxGeometry x="2824.27" y="890" width="153" height="71" as="geometry"/>
                </mxCell>
                <mxCell id="79" style="edgeStyle=orthogonalEdgeStyle;html=1;fontSize=12;fontColor=#FFFFFF;curved=1;entryX=0;entryY=0.5;entryDx=0;entryDy=0;" parent="1" source="47" target="110" edge="1">
                    <mxGeometry relative="1" as="geometry">
                        <mxPoint x="919" y="670" as="targetPoint"/>
                    </mxGeometry>
                </mxCell>
                <mxCell id="47" value="Current Player&lt;br&gt;1" style="whiteSpace=wrap;html=1;fontSize=13;fillColor=#99FF99;strokeColor=none;align=left;verticalAlign=top;labelBackgroundColor=none;fontColor=#000000;" parent="1" vertex="1">
                    <mxGeometry x="641" y="1083" width="153" height="71" as="geometry"/>
                </mxCell>
                <mxCell id="18" value="Scores:&lt;br&gt;player 1 score: 0&lt;br&gt;player 2 score: 0" style="whiteSpace=wrap;html=1;fontSize=13;fillColor=#99FF99;strokeColor=none;align=left;verticalAlign=top;labelBackgroundColor=none;fontColor=#000000;" parent="1" vertex="1">
                    <mxGeometry x="641" y="1000" width="150.85" height="70" as="geometry"/>
                </mxCell>
                <mxCell id="582" style="edgeStyle=orthogonalEdgeStyle;curved=1;html=1;entryX=0;entryY=0.5;entryDx=0;entryDy=0;fontSize=16;" parent="1" source="176" target="450" edge="1">
                    <mxGeometry relative="1" as="geometry"/>
                </mxCell>
                <mxCell id="176" value="Turn points:&lt;br&gt;100" style="whiteSpace=wrap;html=1;fontSize=13;fillColor=#99FF99;strokeColor=none;align=left;verticalAlign=top;labelBackgroundColor=none;fontColor=#000000;" parent="1" vertex="1">
                    <mxGeometry x="3183" y="1075" width="153" height="71" as="geometry"/>
                </mxCell>
                <mxCell id="225" value="Bank Points" style="rounded=1;whiteSpace=wrap;html=1;strokeColor=#2D7600;fontSize=10;fontColor=#ffffff;fillColor=#60a917;verticalAlign=middle;" parent="1" vertex="1">
                    <mxGeometry x="2918" y="648.02" width="60" height="20" as="geometry"/>
                </mxCell>
                <mxCell id="311" value="Turn Points:" style="rounded=0;whiteSpace=wrap;html=1;fontSize=12;fillColor=none;strokeColor=none;align=right;" parent="1" vertex="1">
                    <mxGeometry x="2845.6800000000003" y="714" width="80.41" height="22.97" as="geometry"/>
                </mxCell>
                <mxCell id="312" value="0" style="whiteSpace=wrap;html=1;fontSize=12;align=left;fillColor=#333333;strokeColor=#999999;" parent="1" vertex="1">
                    <mxGeometry x="2933.0899999999997" y="714" width="65.59" height="22.94" as="geometry"/>
                </mxCell>
                <mxCell id="408" value="&lt;font style=&quot;font-size: 19px;&quot;&gt;&lt;br&gt;&lt;span style=&quot;color: rgb(255, 255, 255); font-family: Helvetica; font-style: normal; font-variant-ligatures: normal; font-variant-caps: normal; font-weight: 400; letter-spacing: normal; orphans: 2; text-align: center; text-indent: 0px; text-transform: none; widows: 2; word-spacing: 0px; -webkit-text-stroke-width: 0px; text-decoration-thickness: initial; text-decoration-style: initial; text-decoration-color: initial; float: none; display: inline !important;&quot;&gt;&lt;br&gt;Roll Generator&lt;/span&gt;&lt;br&gt;&lt;/font&gt;" style="sketch=0;html=1;aspect=fixed;strokeColor=#666666;shadow=0;align=center;verticalAlign=bottom;fillColor=#00FFFF;shape=mxgraph.gcp2.play_gear;fontColor=#333333;labelPosition=center;verticalLabelPosition=top;labelBackgroundColor=none;horizontal=1;spacingTop=0;" parent="1" vertex="1">
                    <mxGeometry x="1913" y="660" width="123" height="123" as="geometry"/>
                </mxCell>
                <mxCell id="436" value="" style="edgeStyle=orthogonalEdgeStyle;curved=1;html=1;endArrow=none;" parent="1" source="408" target="435" edge="1">
                    <mxGeometry relative="1" as="geometry">
                        <mxPoint x="1974.5" y="783" as="sourcePoint"/>
                        <mxPoint x="1974.5" y="1359.0000000000002" as="targetPoint"/>
                    </mxGeometry>
                </mxCell>
                <mxCell id="437" style="edgeStyle=orthogonalEdgeStyle;curved=1;html=1;entryX=0.5;entryY=0;entryDx=0;entryDy=0;" parent="1" source="435" target="618" edge="1">
                    <mxGeometry relative="1" as="geometry">
                        <mxPoint x="1974.571428571429" y="1529" as="targetPoint"/>
                    </mxGeometry>
                </mxCell>
                <mxCell id="435" value="Generate Roll Numbers(number)" style="whiteSpace=wrap;html=1;fontSize=13;fillColor=#1ba1e2;strokeColor=#006EAF;align=left;verticalAlign=top;labelBackgroundColor=none;fontColor=#ffffff;" parent="1" vertex="1">
                    <mxGeometry x="1899" y="890" width="153" height="71" as="geometry"/>
                </mxCell>
                <mxCell id="442" style="edgeStyle=orthogonalEdgeStyle;curved=1;html=1;entryX=0.5;entryY=0;entryDx=0;entryDy=0;" parent="1" source="438" target="10" edge="1">
                    <mxGeometry relative="1" as="geometry"/>
                </mxCell>
                <mxCell id="438" value="Staet Game&lt;br&gt;(number of players)" style="whiteSpace=wrap;html=1;fontSize=13;fillColor=#1ba1e2;strokeColor=#006EAF;align=left;verticalAlign=top;labelBackgroundColor=none;fontColor=#ffffff;" parent="1" vertex="1">
                    <mxGeometry x="234" y="886" width="153" height="71" as="geometry"/>
                </mxCell>
                <mxCell id="725" style="edgeStyle=orthogonalEdgeStyle;curved=1;html=1;entryX=0;entryY=0.5;entryDx=0;entryDy=0;" parent="1" source="439" target="719" edge="1">
                    <mxGeometry relative="1" as="geometry"/>
                </mxCell>
                <mxCell id="439" value="LuckTried:&lt;br&gt;diceRolled: 1,2,3,4,5,6&lt;br&gt;meldsKept:&amp;nbsp;&lt;br&gt;bankedPoints: false" style="whiteSpace=wrap;html=1;fontSize=13;fillColor=#99FF99;strokeColor=none;align=left;verticalAlign=top;labelBackgroundColor=none;fontColor=#000000;" parent="1" vertex="1">
                    <mxGeometry x="1184" y="1167" width="153" height="71" as="geometry"/>
                </mxCell>
                <mxCell id="583" style="edgeStyle=orthogonalEdgeStyle;curved=1;html=1;entryX=0;entryY=0.5;entryDx=0;entryDy=0;fontSize=16;" parent="1" source="445" target="578" edge="1">
                    <mxGeometry relative="1" as="geometry"/>
                </mxCell>
                <mxCell id="584" style="edgeStyle=orthogonalEdgeStyle;curved=1;html=1;entryX=0;entryY=0.5;entryDx=0;entryDy=0;fontSize=16;" parent="1" source="445" target="579" edge="1">
                    <mxGeometry relative="1" as="geometry"/>
                </mxCell>
                <mxCell id="445" value="Die Picked:&lt;br&gt;1" style="whiteSpace=wrap;html=1;fontSize=13;fillColor=#FFFFCC;strokeColor=none;align=left;verticalAlign=top;fontColor=#000000;" parent="1" vertex="1">
                    <mxGeometry x="2822.84" y="1526" width="153" height="71" as="geometry"/>
                </mxCell>
                <mxCell id="446" value="Die Picking Behavior" style="shape=flexArrow;endArrow=classic;html=1;curved=1;fillColor=#1ba1e2;strokeColor=#006EAF;startArrow=none;labelBackgroundColor=none;fontColor=default;fontSize=27;verticalAlign=bottom;" parent="1" edge="1">
                    <mxGeometry width="50" height="50" relative="1" as="geometry">
                        <mxPoint x="2836" y="463" as="sourcePoint"/>
                        <mxPoint x="4467" y="462" as="targetPoint"/>
                    </mxGeometry>
                </mxCell>
                <mxCell id="553" style="edgeStyle=orthogonalEdgeStyle;curved=1;html=1;exitX=0;exitY=1;exitDx=0;exitDy=0;entryX=0.5;entryY=0;entryDx=0;entryDy=0;fontSize=16;" parent="1" source="450" target="550" edge="1">
                    <mxGeometry relative="1" as="geometry"/>
                </mxCell>
                <mxCell id="450" value="" style="whiteSpace=wrap;html=1;movable=1;resizable=1;rotatable=1;deletable=1;editable=1;connectable=1;" parent="1" vertex="1">
                    <mxGeometry x="3457" y="536" width="360" height="280" as="geometry"/>
                </mxCell>
                <mxCell id="459" value="&lt;font color=&quot;#ffffff&quot;&gt;Game Score&lt;br&gt;Player 1: 0&lt;br&gt;&lt;/font&gt;&lt;span style=&quot;color: rgb(255, 255, 255);&quot;&gt;Player 2: 0&lt;/span&gt;&lt;font color=&quot;#ffffff&quot;&gt;&lt;br&gt;&lt;/font&gt;" style="whiteSpace=wrap;html=1;rounded=0;strokeColor=#000000;fontColor=#808080;fillColor=#333333;align=left;verticalAlign=top;" parent="1" vertex="1">
                    <mxGeometry x="3697" y="561.8" width="90" height="122.22" as="geometry"/>
                </mxCell>
                <mxCell id="460" value="Current Player" style="rounded=0;whiteSpace=wrap;html=1;fontSize=12;fillColor=none;" parent="1" vertex="1">
                    <mxGeometry x="3477.68" y="561" width="99.32" height="22.97" as="geometry"/>
                </mxCell>
                <mxCell id="461" value="1" style="whiteSpace=wrap;html=1;fontSize=12;" parent="1" vertex="1">
                    <mxGeometry x="3577" y="561" width="32.27" height="22.94" as="geometry"/>
                </mxCell>
                <mxCell id="462" value="Roll Dice" style="rounded=1;whiteSpace=wrap;html=1;strokeColor=#2D7600;fontSize=10;fontColor=#ffffff;fillColor=#60a917;" parent="1" vertex="1">
                    <mxGeometry x="3477" y="655.02" width="60" height="20" as="geometry"/>
                </mxCell>
                <mxCell id="464" value="Bank Points" style="rounded=1;whiteSpace=wrap;html=1;strokeColor=#2D7600;fontSize=10;fontColor=#ffffff;fillColor=#60a917;verticalAlign=middle;" parent="1" vertex="1">
                    <mxGeometry x="3548" y="655.02" width="60" height="20" as="geometry"/>
                </mxCell>
                <mxCell id="465" value="Turn Points:" style="rounded=0;whiteSpace=wrap;html=1;fontSize=12;fillColor=none;strokeColor=none;align=right;" parent="1" vertex="1">
                    <mxGeometry x="3477.6800000000003" y="718" width="80.41" height="22.97" as="geometry"/>
                </mxCell>
                <mxCell id="466" value="100" style="whiteSpace=wrap;html=1;fontSize=12;align=left;fillColor=#60a917;strokeColor=#2D7600;fontColor=#ffffff;" parent="1" vertex="1">
                    <mxGeometry x="3565.0899999999997" y="718" width="65.59" height="22.94" as="geometry"/>
                </mxCell>
                <mxCell id="600" style="edgeStyle=orthogonalEdgeStyle;curved=1;html=1;exitX=0;exitY=1;exitDx=0;exitDy=0;fontColor=#FFFFFF;" parent="1" source="467" target="574" edge="1">
                    <mxGeometry relative="1" as="geometry"/>
                </mxCell>
                <mxCell id="467" value="" style="whiteSpace=wrap;html=1;movable=1;resizable=1;rotatable=1;deletable=1;editable=1;connectable=1;" parent="1" vertex="1">
                    <mxGeometry x="4090" y="536" width="360" height="280" as="geometry"/>
                </mxCell>
                <mxCell id="476" value="&lt;font color=&quot;#ffffff&quot;&gt;Game Score&lt;br&gt;Player 1: 0&lt;br&gt;&lt;/font&gt;&lt;span style=&quot;color: rgb(255, 255, 255);&quot;&gt;Player 2: 0&lt;/span&gt;&lt;font color=&quot;#ffffff&quot;&gt;&lt;br&gt;&lt;/font&gt;" style="whiteSpace=wrap;html=1;rounded=0;strokeColor=#000000;fontColor=#808080;fillColor=#333333;align=left;verticalAlign=top;" parent="1" vertex="1">
                    <mxGeometry x="4330" y="561.8" width="90" height="122.22" as="geometry"/>
                </mxCell>
                <mxCell id="477" value="Current Player" style="rounded=0;whiteSpace=wrap;html=1;fontSize=12;fillColor=none;" parent="1" vertex="1">
                    <mxGeometry x="4110.68" y="561" width="99.32" height="22.97" as="geometry"/>
                </mxCell>
                <mxCell id="478" value="1" style="whiteSpace=wrap;html=1;fontSize=12;" parent="1" vertex="1">
                    <mxGeometry x="4210" y="561" width="32.27" height="22.94" as="geometry"/>
                </mxCell>
                <mxCell id="479" value="Roll Dice" style="rounded=1;whiteSpace=wrap;html=1;strokeColor=#001DBC;fontSize=10;fontColor=#ffffff;fillColor=#0050ef;" parent="1" vertex="1">
                    <mxGeometry x="4110" y="654.02" width="60" height="20" as="geometry"/>
                </mxCell>
                <mxCell id="481" value="Bank Points" style="rounded=1;whiteSpace=wrap;html=1;strokeColor=#2D7600;fontSize=10;fontColor=#ffffff;fillColor=#60a917;verticalAlign=middle;" parent="1" vertex="1">
                    <mxGeometry x="4183" y="654.02" width="60" height="20" as="geometry"/>
                </mxCell>
                <mxCell id="452" value="1" style="whiteSpace=wrap;html=1;aspect=fixed;fontColor=#ffffff;fillColor=#60a917;strokeColor=#2D7600;rounded=1;container=0;" parent="1" vertex="1">
                    <mxGeometry x="3477" y="690" width="20" height="20" as="geometry"/>
                </mxCell>
                <mxCell id="453" value="2" style="whiteSpace=wrap;html=1;aspect=fixed;fontColor=#000000;fillColor=#FFFFFF;strokeColor=#000000;rounded=1;container=0;" parent="1" vertex="1">
                    <mxGeometry x="3477" y="619" width="20" height="20" as="geometry"/>
                </mxCell>
                <mxCell id="454" value="3" style="whiteSpace=wrap;html=1;aspect=fixed;fontColor=#000000;fillColor=#FFFFFF;strokeColor=#000000;rounded=1;container=0;" parent="1" vertex="1">
                    <mxGeometry x="3507" y="619" width="20" height="20" as="geometry"/>
                </mxCell>
                <mxCell id="455" value="2" style="whiteSpace=wrap;html=1;aspect=fixed;fontColor=#000000;fillColor=#FFFFFF;strokeColor=#000000;rounded=1;container=0;" parent="1" vertex="1">
                    <mxGeometry x="3537" y="619" width="20" height="20" as="geometry"/>
                </mxCell>
                <mxCell id="456" value="5" style="whiteSpace=wrap;html=1;aspect=fixed;fontColor=#000000;fillColor=#FFFFFF;strokeColor=#000000;rounded=1;container=0;" parent="1" vertex="1">
                    <mxGeometry x="3567" y="619" width="20" height="20" as="geometry"/>
                </mxCell>
                <mxCell id="457" value="5" style="whiteSpace=wrap;html=1;aspect=fixed;fontColor=#ffffff;fillColor=#0050ef;strokeColor=#001DBC;rounded=1;container=0;" parent="1" vertex="1">
                    <mxGeometry x="3627" y="619" width="20" height="20" as="geometry"/>
                </mxCell>
                <mxCell id="469" value="1" style="whiteSpace=wrap;html=1;aspect=fixed;fontColor=#000000;fillColor=#FFFFFF;strokeColor=#000000;rounded=1;container=0;" parent="1" vertex="1">
                    <mxGeometry x="4110" y="687" width="20" height="20" as="geometry"/>
                </mxCell>
                <mxCell id="470" value="2" style="whiteSpace=wrap;html=1;aspect=fixed;fontColor=#000000;fillColor=#FFFFFF;strokeColor=#000000;rounded=1;container=0;" parent="1" vertex="1">
                    <mxGeometry x="4110" y="620" width="20" height="20" as="geometry"/>
                </mxCell>
                <mxCell id="471" value="2" style="whiteSpace=wrap;html=1;aspect=fixed;fontColor=#000000;fillColor=#FFFFFF;strokeColor=#000000;rounded=1;container=0;" parent="1" vertex="1">
                    <mxGeometry x="4140" y="619" width="20" height="20" as="geometry"/>
                </mxCell>
                <mxCell id="472" value="3" style="whiteSpace=wrap;html=1;aspect=fixed;fontColor=#000000;fillColor=#FFFFFF;strokeColor=#000000;rounded=1;container=0;" parent="1" vertex="1">
                    <mxGeometry x="4170" y="619" width="20" height="20" as="geometry"/>
                </mxCell>
                <mxCell id="473" value="4" style="whiteSpace=wrap;html=1;aspect=fixed;fontColor=#000000;fillColor=#FFFFFF;strokeColor=#000000;rounded=1;container=0;" parent="1" vertex="1">
                    <mxGeometry x="4200" y="619" width="20" height="20" as="geometry"/>
                </mxCell>
                <mxCell id="474" value="5" style="whiteSpace=wrap;html=1;aspect=fixed;fontColor=#ffffff;fillColor=#60a917;strokeColor=#2D7600;rounded=1;container=0;" parent="1" vertex="1">
                    <mxGeometry x="4140" y="687" width="20" height="20" as="geometry"/>
                </mxCell>
                <mxCell id="643" style="edgeStyle=orthogonalEdgeStyle;curved=1;html=1;exitX=0;exitY=1;exitDx=0;exitDy=0;entryX=0.5;entryY=0;entryDx=0;entryDy=0;fontColor=#FFFFFF;" parent="1" source="502" target="638" edge="1">
                    <mxGeometry relative="1" as="geometry"/>
                </mxCell>
                <mxCell id="502" value="" style="whiteSpace=wrap;html=1;movable=1;resizable=1;rotatable=1;deletable=1;editable=1;connectable=1;" parent="1" vertex="1">
                    <mxGeometry x="6517" y="536" width="360" height="280" as="geometry"/>
                </mxCell>
                <mxCell id="504" value="&lt;font color=&quot;#ffffff&quot;&gt;Game Score&lt;br&gt;Player 1: 0&lt;br&gt;&lt;/font&gt;&lt;span style=&quot;color: rgb(255, 255, 255);&quot;&gt;Player 2: 0&lt;/span&gt;&lt;font color=&quot;#ffffff&quot;&gt;&lt;br&gt;&lt;/font&gt;" style="whiteSpace=wrap;html=1;rounded=0;strokeColor=#000000;fontColor=#808080;fillColor=#333333;align=left;verticalAlign=top;" parent="1" vertex="1">
                    <mxGeometry x="6758" y="561.8" width="90" height="122.22" as="geometry"/>
                </mxCell>
                <mxCell id="505" value="Current Player" style="rounded=0;whiteSpace=wrap;html=1;fontSize=12;fillColor=none;" parent="1" vertex="1">
                    <mxGeometry x="6537.68" y="561" width="99.32" height="22.97" as="geometry"/>
                </mxCell>
                <mxCell id="506" value="1" style="whiteSpace=wrap;html=1;fontSize=12;" parent="1" vertex="1">
                    <mxGeometry x="6637" y="561" width="32.27" height="22.94" as="geometry"/>
                </mxCell>
                <mxCell id="507" value="Roll Dice" style="rounded=1;whiteSpace=wrap;html=1;strokeColor=#23445d;fontSize=10;fontColor=#808080;fillColor=#333333;gradientColor=none;" parent="1" vertex="1">
                    <mxGeometry x="6537" y="654.02" width="60" height="20" as="geometry"/>
                </mxCell>
                <mxCell id="509" value="Bank Points" style="rounded=1;whiteSpace=wrap;html=1;strokeColor=#001DBC;fontSize=10;fontColor=#ffffff;fillColor=#0050ef;verticalAlign=middle;" parent="1" vertex="1">
                    <mxGeometry x="6608" y="654.02" width="60" height="20" as="geometry"/>
                </mxCell>
                <mxCell id="512" value="1" style="whiteSpace=wrap;html=1;aspect=fixed;fontColor=#000000;fillColor=#FFFFFF;strokeColor=#000000;rounded=1;container=0;" parent="1" vertex="1">
                    <mxGeometry x="6537" y="688" width="20" height="20" as="geometry"/>
                </mxCell>
                <mxCell id="513" value="1" style="whiteSpace=wrap;html=1;aspect=fixed;fontColor=#ffffff;fillColor=#0050ef;strokeColor=#001DBC;rounded=1;container=0;" parent="1" vertex="1">
                    <mxGeometry x="6597" y="687" width="20" height="20" as="geometry"/>
                </mxCell>
                <mxCell id="514" value="3" style="whiteSpace=wrap;html=1;aspect=fixed;fontColor=#000000;fillColor=#FFFFFF;strokeColor=#000000;rounded=1;container=0;" parent="1" vertex="1">
                    <mxGeometry x="6567" y="619" width="20" height="20" as="geometry"/>
                </mxCell>
                <mxCell id="515" value="5" style="whiteSpace=wrap;html=1;aspect=fixed;fontColor=#ffffff;fillColor=#0050ef;strokeColor=#001DBC;rounded=1;container=0;" parent="1" vertex="1">
                    <mxGeometry x="6627" y="687" width="20" height="20" as="geometry"/>
                </mxCell>
                <mxCell id="516" value="6" style="whiteSpace=wrap;html=1;aspect=fixed;fontColor=#000000;fillColor=#FFFFFF;strokeColor=#000000;rounded=1;container=0;" parent="1" vertex="1">
                    <mxGeometry x="6627" y="619" width="20" height="20" as="geometry"/>
                </mxCell>
                <mxCell id="517" value="5" style="whiteSpace=wrap;html=1;aspect=fixed;fontColor=#000000;fillColor=#FFFFFF;strokeColor=#000000;rounded=1;container=0;" parent="1" vertex="1">
                    <mxGeometry x="6567" y="687" width="20" height="20" as="geometry"/>
                </mxCell>
                <mxCell id="554" style="edgeStyle=orthogonalEdgeStyle;curved=1;html=1;exitX=0.5;exitY=1;exitDx=0;exitDy=0;entryX=0.5;entryY=0;entryDx=0;entryDy=0;fontSize=16;" parent="1" source="550" target="552" edge="1">
                    <mxGeometry relative="1" as="geometry"/>
                </mxCell>
                <mxCell id="550" value="Pick Die" style="whiteSpace=wrap;html=1;fontSize=13;fillColor=#1ba1e2;strokeColor=#006EAF;align=left;verticalAlign=top;labelBackgroundColor=none;fontColor=#ffffff;" parent="1" vertex="1">
                    <mxGeometry x="3454.43" y="869" width="153" height="71" as="geometry"/>
                </mxCell>
                <mxCell id="605" style="edgeStyle=orthogonalEdgeStyle;curved=1;html=1;entryX=0;entryY=0.5;entryDx=0;entryDy=0;fontColor=#FFFFFF;" parent="1" source="552" target="601" edge="1">
                    <mxGeometry relative="1" as="geometry"/>
                </mxCell>
                <mxCell id="606" style="edgeStyle=orthogonalEdgeStyle;curved=1;html=1;entryX=0;entryY=0.5;entryDx=0;entryDy=0;fontColor=#FFFFFF;" parent="1" source="552" target="602" edge="1">
                    <mxGeometry relative="1" as="geometry"/>
                </mxCell>
                <mxCell id="607" style="edgeStyle=orthogonalEdgeStyle;curved=1;html=1;entryX=0;entryY=0.5;entryDx=0;entryDy=0;fontColor=#FFFFFF;" parent="1" source="552" target="603" edge="1">
                    <mxGeometry relative="1" as="geometry"/>
                </mxCell>
                <mxCell id="552" value="Die Picked:&lt;br&gt;5" style="whiteSpace=wrap;html=1;fontSize=13;fillColor=#FFFFCC;strokeColor=none;align=left;verticalAlign=top;fontColor=#000000;" parent="1" vertex="1">
                    <mxGeometry x="3453" y="1529" width="153" height="71" as="geometry"/>
                </mxCell>
                <mxCell id="628" style="edgeStyle=orthogonalEdgeStyle;curved=1;html=1;fontColor=#FFFFFF;" parent="1" source="574" target="625" edge="1">
                    <mxGeometry relative="1" as="geometry"/>
                </mxCell>
                <mxCell id="574" value="Rolll Dice" style="whiteSpace=wrap;html=1;fontSize=13;fillColor=#1ba1e2;strokeColor=#006EAF;align=left;verticalAlign=top;labelBackgroundColor=none;fontColor=#ffffff;" parent="1" vertex="1">
                    <mxGeometry x="4090" y="861" width="153" height="71" as="geometry"/>
                </mxCell>
                <mxCell id="581" style="edgeStyle=orthogonalEdgeStyle;curved=1;html=1;entryX=0;entryY=0.5;entryDx=0;entryDy=0;fontSize=16;" parent="1" source="578" target="450" edge="1">
                    <mxGeometry relative="1" as="geometry"/>
                </mxCell>
                <mxCell id="578" value="Banks Points:&lt;br&gt;enabled: true" style="whiteSpace=wrap;html=1;fontSize=13;fillColor=#99FF99;strokeColor=none;align=left;verticalAlign=top;labelBackgroundColor=none;fontColor=#000000;" parent="1" vertex="1">
                    <mxGeometry x="3183" y="992" width="153" height="71" as="geometry"/>
                </mxCell>
                <mxCell id="580" style="edgeStyle=orthogonalEdgeStyle;curved=1;html=1;entryX=0;entryY=0.5;entryDx=0;entryDy=0;fontSize=16;" parent="1" source="579" target="450" edge="1">
                    <mxGeometry relative="1" as="geometry"/>
                </mxCell>
                <mxCell id="579" value="Roll Dice:&lt;br&gt;enabled: true" style="whiteSpace=wrap;html=1;fontSize=13;fillColor=#99FF99;strokeColor=none;align=left;verticalAlign=top;labelBackgroundColor=none;fontColor=#000000;" parent="1" vertex="1">
                    <mxGeometry x="3183" y="909" width="153" height="71" as="geometry"/>
                </mxCell>
                <mxCell id="586" style="edgeStyle=orthogonalEdgeStyle;html=1;entryX=0;entryY=0.5;entryDx=0;entryDy=0;curved=1;" parent="1" source="585" target="110" edge="1">
                    <mxGeometry relative="1" as="geometry"/>
                </mxCell>
                <mxCell id="585" value="Roll Dice:&lt;br&gt;Enabled" style="whiteSpace=wrap;html=1;fontSize=13;fillColor=#99FF99;strokeColor=none;align=left;verticalAlign=top;labelBackgroundColor=none;fontColor=#000000;" parent="1" vertex="1">
                    <mxGeometry x="641" y="1250" width="153" height="71" as="geometry"/>
                </mxCell>
                <mxCell id="595" value="Turn Points:" style="rounded=0;whiteSpace=wrap;html=1;fontSize=12;fillColor=none;strokeColor=none;align=right;" parent="1" vertex="1">
                    <mxGeometry x="4107.68" y="718" width="80.41" height="22.97" as="geometry"/>
                </mxCell>
                <mxCell id="596" value="150" style="whiteSpace=wrap;html=1;fontSize=12;align=left;fillColor=#60a917;strokeColor=#2D7600;fontColor=#ffffff;" parent="1" vertex="1">
                    <mxGeometry x="4195.09" y="718" width="65.59" height="22.94" as="geometry"/>
                </mxCell>
                <mxCell id="641" style="edgeStyle=orthogonalEdgeStyle;curved=1;html=1;entryX=0;entryY=0.5;entryDx=0;entryDy=0;fontColor=#FFFFFF;" parent="1" source="601" target="467" edge="1">
                    <mxGeometry relative="1" as="geometry"/>
                </mxCell>
                <mxCell id="601" value="Turn points:&lt;br&gt;150" style="whiteSpace=wrap;html=1;fontSize=13;fillColor=#99FF99;strokeColor=none;align=left;verticalAlign=top;labelBackgroundColor=none;fontColor=#000000;" parent="1" vertex="1">
                    <mxGeometry x="3827" y="1075" width="153" height="71" as="geometry"/>
                </mxCell>
                <mxCell id="640" style="edgeStyle=orthogonalEdgeStyle;curved=1;html=1;entryX=0;entryY=0.5;entryDx=0;entryDy=0;fontColor=#FFFFFF;" parent="1" source="602" target="467" edge="1">
                    <mxGeometry relative="1" as="geometry"/>
                </mxCell>
                <mxCell id="602" value="Banks Points:&lt;br&gt;enabled: true" style="whiteSpace=wrap;html=1;fontSize=13;fillColor=#99FF99;strokeColor=none;align=left;verticalAlign=top;labelBackgroundColor=none;fontColor=#000000;" parent="1" vertex="1">
                    <mxGeometry x="3827" y="992" width="153" height="71" as="geometry"/>
                </mxCell>
                <mxCell id="639" style="edgeStyle=orthogonalEdgeStyle;curved=1;html=1;entryX=0;entryY=0.5;entryDx=0;entryDy=0;fontColor=#FFFFFF;" parent="1" source="603" target="467" edge="1">
                    <mxGeometry relative="1" as="geometry"/>
                </mxCell>
                <mxCell id="603" value="Roll Dice:&lt;br&gt;enabled: true" style="whiteSpace=wrap;html=1;fontSize=13;fillColor=#99FF99;strokeColor=none;align=left;verticalAlign=top;labelBackgroundColor=none;fontColor=#000000;" parent="1" vertex="1">
                    <mxGeometry x="3827" y="909" width="153" height="71" as="geometry"/>
                </mxCell>
                <mxCell id="611" value="Generate Roll Numbers(number)" style="whiteSpace=wrap;html=1;fontSize=13;fillColor=#1ba1e2;strokeColor=#006EAF;align=left;verticalAlign=top;labelBackgroundColor=none;fontColor=#ffffff;" parent="1" vertex="1">
                    <mxGeometry x="1899" y="891" width="153" height="71" as="geometry"/>
                </mxCell>
                <mxCell id="614" value="Generate Roll Numbers(number)" style="whiteSpace=wrap;html=1;fontSize=13;fillColor=#1ba1e2;strokeColor=#006EAF;align=left;verticalAlign=top;labelBackgroundColor=none;fontColor=#ffffff;" parent="1" vertex="1">
                    <mxGeometry x="1899" y="890" width="153" height="71" as="geometry"/>
                </mxCell>
                <mxCell id="617" value="Generate Roll Numbers(number)" style="whiteSpace=wrap;html=1;fontSize=13;fillColor=#1ba1e2;strokeColor=#006EAF;align=left;verticalAlign=top;labelBackgroundColor=none;fontColor=#ffffff;" parent="1" vertex="1">
                    <mxGeometry x="1899" y="889" width="153" height="71" as="geometry"/>
                </mxCell>
                <mxCell id="618" value="Roll Generated:&lt;br&gt;1,2,2,3,4,5" style="whiteSpace=wrap;html=1;fontSize=13;fillColor=#FFFFCC;strokeColor=none;align=left;verticalAlign=top;fontColor=#000000;" parent="1" vertex="1">
                    <mxGeometry x="1898" y="1678" width="153" height="71" as="geometry"/>
                </mxCell>
                <mxCell id="620" value="Generate Roll Numbers(number)" style="whiteSpace=wrap;html=1;fontSize=13;fillColor=#1ba1e2;strokeColor=#006EAF;align=left;verticalAlign=top;labelBackgroundColor=none;fontColor=#ffffff;" parent="1" vertex="1">
                    <mxGeometry x="1898" y="889" width="153" height="71" as="geometry"/>
                </mxCell>
                <mxCell id="624" value="Scores:&lt;br&gt;player 1 score: 150&lt;br&gt;player 2 score: 0" style="whiteSpace=wrap;html=1;fontSize=13;fillColor=#99FF99;strokeColor=none;align=left;verticalAlign=top;labelBackgroundColor=none;fontColor=#000000;" parent="1" vertex="1">
                    <mxGeometry x="4344" y="1167" width="153" height="71" as="geometry"/>
                </mxCell>
                <mxCell id="629" style="edgeStyle=orthogonalEdgeStyle;curved=1;html=1;entryX=0;entryY=0.5;entryDx=0;entryDy=0;fontColor=#FFFFFF;" parent="1" source="625" target="624" edge="1">
                    <mxGeometry relative="1" as="geometry"/>
                </mxCell>
                <mxCell id="813" style="edgeStyle=orthogonalEdgeStyle;curved=1;html=1;entryX=0;entryY=0.5;entryDx=0;entryDy=0;" edge="1" parent="1" source="625" target="812">
                    <mxGeometry relative="1" as="geometry"/>
                </mxCell>
                <mxCell id="625" value="LuckTried:&lt;br&gt;diceRolled: 2,2,3,4&lt;br&gt;meldsKept: 1,5&lt;br&gt;bankedPoints: false" style="whiteSpace=wrap;html=1;fontSize=13;fillColor=#FFFFCC;strokeColor=none;align=left;verticalAlign=top;fontColor=#000000;" parent="1" vertex="1">
                    <mxGeometry x="4091.84" y="1387" width="153" height="71" as="geometry"/>
                </mxCell>
                <mxCell id="645" style="edgeStyle=orthogonalEdgeStyle;curved=1;html=1;fontColor=#FFFFFF;" parent="1" source="638" target="644" edge="1">
                    <mxGeometry relative="1" as="geometry"/>
                </mxCell>
                <mxCell id="638" value="Bank Points" style="whiteSpace=wrap;html=1;fontSize=13;fillColor=#1ba1e2;strokeColor=#006EAF;align=left;verticalAlign=top;labelBackgroundColor=none;fontColor=#ffffff;" parent="1" vertex="1">
                    <mxGeometry x="6517" y="858" width="153" height="71" as="geometry"/>
                </mxCell>
                <mxCell id="781" style="edgeStyle=orthogonalEdgeStyle;curved=1;html=1;entryX=0;entryY=0.5;entryDx=0;entryDy=0;" parent="1" source="644" target="780" edge="1">
                    <mxGeometry relative="1" as="geometry"/>
                </mxCell>
                <mxCell id="809" style="edgeStyle=orthogonalEdgeStyle;curved=1;html=1;entryX=0;entryY=0.75;entryDx=0;entryDy=0;" edge="1" parent="1" source="644" target="808">
                    <mxGeometry relative="1" as="geometry"/>
                </mxCell>
                <mxCell id="644" value="LuckTried:&lt;br&gt;diceRolled: 1,3,5,6&lt;br&gt;meldsKept: 1,5&lt;br&gt;bankedPoints: true" style="whiteSpace=wrap;html=1;fontSize=13;fillColor=#FFFFCC;strokeColor=none;align=left;verticalAlign=top;fontColor=#000000;" parent="1" vertex="1">
                    <mxGeometry x="6518.839999999999" y="1387" width="153" height="71" as="geometry"/>
                </mxCell>
                <mxCell id="667" value="Turn Points:" style="rounded=0;whiteSpace=wrap;html=1;fontSize=12;fillColor=none;strokeColor=none;align=right;" parent="1" vertex="1">
                    <mxGeometry x="6540.68" y="718" width="80.41" height="22.97" as="geometry"/>
                </mxCell>
                <mxCell id="668" value="300" style="whiteSpace=wrap;html=1;fontSize=12;align=left;fillColor=#333333;strokeColor=#314354;fontColor=#ffffff;" parent="1" vertex="1">
                    <mxGeometry x="6628.09" y="718" width="65.59" height="22.94" as="geometry"/>
                </mxCell>
                <mxCell id="669" value="Melds:" style="rounded=0;whiteSpace=wrap;html=1;fontSize=12;fillColor=none;strokeColor=none;align=right;" parent="1" vertex="1">
                    <mxGeometry x="6540.68" y="742" width="80.41" height="22.97" as="geometry"/>
                </mxCell>
                <mxCell id="697" style="edgeStyle=orthogonalEdgeStyle;curved=1;html=1;fontSize=10;fontColor=#FFFFFF;exitX=0.508;exitY=0.992;exitDx=0;exitDy=0;exitPerimeter=0;" parent="1" source="702" target="699" edge="1">
                    <mxGeometry relative="1" as="geometry">
                        <mxPoint x="2419.5" y="784" as="sourcePoint"/>
                    </mxGeometry>
                </mxCell>
                <mxCell id="698" style="edgeStyle=orthogonalEdgeStyle;curved=1;html=1;fontSize=10;fontColor=#FFFFFF;" parent="1" source="699" target="701" edge="1">
                    <mxGeometry relative="1" as="geometry"/>
                </mxCell>
                <mxCell id="699" value="Inspect Dice" style="whiteSpace=wrap;html=1;fontSize=13;fillColor=#1ba1e2;strokeColor=#006EAF;align=left;verticalAlign=top;labelBackgroundColor=none;fontColor=#ffffff;" parent="1" vertex="1">
                    <mxGeometry x="2343" y="887" width="153" height="71" as="geometry"/>
                </mxCell>
                <mxCell id="700" style="edgeStyle=orthogonalEdgeStyle;curved=1;html=1;entryX=0;entryY=0.5;entryDx=0;entryDy=0;" parent="1" source="701" target="703" edge="1">
                    <mxGeometry relative="1" as="geometry"/>
                </mxCell>
                <mxCell id="728" style="edgeStyle=orthogonalEdgeStyle;curved=1;html=1;entryX=0;entryY=0.5;entryDx=0;entryDy=0;" parent="1" source="701" target="716" edge="1">
                    <mxGeometry relative="1" as="geometry"/>
                </mxCell>
                <mxCell id="701" value="Dice Inspected:&lt;br&gt;scorable: true" style="whiteSpace=wrap;html=1;fontSize=13;fillColor=#FFFFCC;strokeColor=none;align=left;verticalAlign=top;fontColor=#000000;" parent="1" vertex="1">
                    <mxGeometry x="2343" y="1525" width="153" height="71" as="geometry"/>
                </mxCell>
                <mxCell id="702" value="&lt;font style=&quot;font-size: 19px;&quot;&gt;&lt;br&gt;&lt;span style=&quot;color: rgb(255, 255, 255); font-family: Helvetica; font-style: normal; font-variant-ligatures: normal; font-variant-caps: normal; font-weight: 400; letter-spacing: normal; orphans: 2; text-align: center; text-indent: 0px; text-transform: none; widows: 2; word-spacing: 0px; -webkit-text-stroke-width: 0px; text-decoration-thickness: initial; text-decoration-style: initial; text-decoration-color: initial; float: none; display: inline !important;&quot;&gt;&lt;br&gt;Dice Inspector&lt;/span&gt;&lt;br&gt;&lt;/font&gt;" style="sketch=0;html=1;aspect=fixed;strokeColor=#666666;shadow=0;align=center;verticalAlign=bottom;fillColor=#00FFFF;shape=mxgraph.gcp2.play_gear;fontColor=#333333;labelPosition=center;verticalLabelPosition=top;labelBackgroundColor=none;horizontal=1;spacingTop=0;" parent="1" vertex="1">
                    <mxGeometry x="2357.5" y="661" width="123" height="123" as="geometry"/>
                </mxCell>
                <mxCell id="729" style="edgeStyle=orthogonalEdgeStyle;curved=1;html=1;entryX=0;entryY=0.5;entryDx=0;entryDy=0;" parent="1" source="703" target="97" edge="1">
                    <mxGeometry relative="1" as="geometry"/>
                </mxCell>
                <mxCell id="703" value="Dice:&lt;br&gt;2,3,2,5,1,5" style="whiteSpace=wrap;html=1;fontSize=13;fillColor=#99FF99;strokeColor=none;align=left;verticalAlign=top;labelBackgroundColor=none;fontColor=#000000;" parent="1" vertex="1">
                    <mxGeometry x="2563" y="1077" width="153" height="71" as="geometry"/>
                </mxCell>
                <mxCell id="767" style="edgeStyle=orthogonalEdgeStyle;curved=1;html=1;entryX=0;entryY=0.5;entryDx=0;entryDy=0;" parent="1" source="716" target="97" edge="1">
                    <mxGeometry relative="1" as="geometry"/>
                </mxCell>
                <mxCell id="716" value="Banks Points:&lt;br&gt;enabled: true" style="whiteSpace=wrap;html=1;fontSize=13;fillColor=#99FF99;strokeColor=none;align=left;verticalAlign=top;labelBackgroundColor=none;fontColor=#000000;" parent="1" vertex="1">
                    <mxGeometry x="2563" y="1158.5" width="153" height="71" as="geometry"/>
                </mxCell>
                <mxCell id="717" style="edgeStyle=orthogonalEdgeStyle;curved=1;html=1;fontSize=10;fontColor=#FFFFFF;exitX=0.508;exitY=0.992;exitDx=0;exitDy=0;exitPerimeter=0;" parent="1" source="722" target="719" edge="1">
                    <mxGeometry relative="1" as="geometry">
                        <mxPoint x="1510.5" y="782" as="sourcePoint"/>
                    </mxGeometry>
                </mxCell>
                <mxCell id="718" style="edgeStyle=orthogonalEdgeStyle;curved=1;html=1;fontSize=10;fontColor=#FFFFFF;" parent="1" source="719" target="721" edge="1">
                    <mxGeometry relative="1" as="geometry"/>
                </mxCell>
                <mxCell id="719" value="Inspect Scores" style="whiteSpace=wrap;html=1;fontSize=13;fillColor=#1ba1e2;strokeColor=#006EAF;align=left;verticalAlign=top;labelBackgroundColor=none;fontColor=#ffffff;" parent="1" vertex="1">
                    <mxGeometry x="1434" y="885" width="153" height="71" as="geometry"/>
                </mxCell>
                <mxCell id="720" style="edgeStyle=orthogonalEdgeStyle;curved=1;html=1;entryX=0;entryY=0.5;entryDx=0;entryDy=0;" parent="1" source="721" target="723" edge="1">
                    <mxGeometry relative="1" as="geometry"/>
                </mxCell>
                <mxCell id="721" value="Socres Inspected:&lt;br&gt;winner:false" style="whiteSpace=wrap;html=1;fontSize=13;fillColor=#FFFFCC;strokeColor=none;align=left;verticalAlign=top;fontColor=#000000;" parent="1" vertex="1">
                    <mxGeometry x="1434" y="1533" width="153" height="71" as="geometry"/>
                </mxCell>
                <mxCell id="722" value="&lt;font style=&quot;font-size: 19px;&quot;&gt;&lt;br&gt;&lt;span style=&quot;color: rgb(255, 255, 255); font-family: Helvetica; font-style: normal; font-variant-ligatures: normal; font-variant-caps: normal; font-weight: 400; letter-spacing: normal; orphans: 2; text-align: center; text-indent: 0px; text-transform: none; widows: 2; word-spacing: 0px; -webkit-text-stroke-width: 0px; text-decoration-thickness: initial; text-decoration-style: initial; text-decoration-color: initial; float: none; display: inline !important;&quot;&gt;&lt;br&gt;Winner Inspector&lt;/span&gt;&lt;br&gt;&lt;/font&gt;" style="sketch=0;html=1;aspect=fixed;strokeColor=#666666;shadow=0;align=center;verticalAlign=bottom;fillColor=#00FFFF;shape=mxgraph.gcp2.play_gear;fontColor=#333333;labelPosition=center;verticalLabelPosition=top;labelBackgroundColor=none;horizontal=1;spacingTop=0;" parent="1" vertex="1">
                    <mxGeometry x="1448.5" y="659" width="123" height="123" as="geometry"/>
                </mxCell>
                <mxCell id="726" style="edgeStyle=orthogonalEdgeStyle;curved=1;html=1;entryX=0;entryY=0.5;entryDx=0;entryDy=0;" parent="1" source="723" target="620" edge="1">
                    <mxGeometry relative="1" as="geometry"/>
                </mxCell>
                <mxCell id="723" value="Socres Inspected:&lt;br&gt;winner:false" style="whiteSpace=wrap;html=1;fontSize=13;fillColor=#99FF99;strokeColor=none;align=left;verticalAlign=top;labelBackgroundColor=none;fontColor=#000000;" parent="1" vertex="1">
                    <mxGeometry x="1675" y="1077" width="153" height="71" as="geometry"/>
                </mxCell>
                <mxCell id="99" value="2" style="whiteSpace=wrap;html=1;aspect=fixed;fontColor=#ffffff;fillColor=#60a917;strokeColor=#2D7600;rounded=1;container=0;" parent="1" vertex="1">
                    <mxGeometry x="2845" y="613" width="20" height="20" as="geometry"/>
                </mxCell>
                <mxCell id="100" value="3" style="whiteSpace=wrap;html=1;aspect=fixed;fontColor=#ffffff;fillColor=#60a917;strokeColor=#2D7600;rounded=1;container=0;" parent="1" vertex="1">
                    <mxGeometry x="2875" y="613" width="20" height="20" as="geometry"/>
                </mxCell>
                <mxCell id="101" value="2" style="whiteSpace=wrap;html=1;aspect=fixed;fontColor=#ffffff;fillColor=#60a917;strokeColor=#2D7600;rounded=1;container=0;" parent="1" vertex="1">
                    <mxGeometry x="2905" y="613" width="20" height="20" as="geometry"/>
                </mxCell>
                <mxCell id="102" value="5" style="whiteSpace=wrap;html=1;aspect=fixed;fontColor=#ffffff;fillColor=#60a917;strokeColor=#2D7600;rounded=1;container=0;" parent="1" vertex="1">
                    <mxGeometry x="2935" y="613" width="20" height="20" as="geometry"/>
                </mxCell>
                <mxCell id="103" value="1" style="whiteSpace=wrap;html=1;aspect=fixed;fontColor=#ffffff;fillColor=#0050ef;strokeColor=#001DBC;rounded=1;container=0;" parent="1" vertex="1">
                    <mxGeometry x="2965" y="613" width="20" height="20" as="geometry"/>
                </mxCell>
                <mxCell id="104" value="5" style="whiteSpace=wrap;html=1;aspect=fixed;fontColor=#ffffff;fillColor=#60a917;strokeColor=#2D7600;rounded=1;container=0;" parent="1" vertex="1">
                    <mxGeometry x="2995" y="613" width="20" height="20" as="geometry"/>
                </mxCell>
                <mxCell id="732" style="edgeStyle=orthogonalEdgeStyle;curved=1;html=1;entryX=0;entryY=0.5;entryDx=0;entryDy=0;fontSize=12;fontColor=#FFFFFF;exitX=1;exitY=0.5;exitDx=0;exitDy=0;" parent="1" source="733" target="735" edge="1">
                    <mxGeometry relative="1" as="geometry">
                        <mxPoint x="5211" y="1588.5" as="sourcePoint"/>
                    </mxGeometry>
                </mxCell>
                <mxCell id="733" value="Roll Generated:&lt;br&gt;1,2,2,3,4,5" style="whiteSpace=wrap;html=1;fontSize=13;fillColor=#FFFFCC;strokeColor=none;align=left;verticalAlign=top;fontColor=#000000;" parent="1" vertex="1">
                    <mxGeometry x="5058" y="1670" width="153" height="71" as="geometry"/>
                </mxCell>
                <mxCell id="734" style="edgeStyle=orthogonalEdgeStyle;curved=1;html=1;entryX=0;entryY=0.5;entryDx=0;entryDy=0;" parent="1" source="735" target="751" edge="1">
                    <mxGeometry relative="1" as="geometry"/>
                </mxCell>
                <mxCell id="735" value="Generated Values:&lt;br&gt;1,3,5,6" style="whiteSpace=wrap;html=1;fontSize=13;fillColor=#99FF99;strokeColor=none;align=left;verticalAlign=top;labelBackgroundColor=none;fontColor=#000000;" parent="1" vertex="1">
                    <mxGeometry x="5285" y="1080" width="153" height="71" as="geometry"/>
                </mxCell>
                <mxCell id="736" value="&lt;font style=&quot;font-size: 19px;&quot;&gt;&lt;br&gt;&lt;span style=&quot;color: rgb(255, 255, 255); font-family: Helvetica; font-style: normal; font-variant-ligatures: normal; font-variant-caps: normal; font-weight: 400; letter-spacing: normal; orphans: 2; text-align: center; text-indent: 0px; text-transform: none; widows: 2; word-spacing: 0px; -webkit-text-stroke-width: 0px; text-decoration-thickness: initial; text-decoration-style: initial; text-decoration-color: initial; float: none; display: inline !important;&quot;&gt;&lt;br&gt;Roll Generator&lt;/span&gt;&lt;br&gt;&lt;/font&gt;" style="sketch=0;html=1;aspect=fixed;strokeColor=#666666;shadow=0;align=center;verticalAlign=bottom;fillColor=#00FFFF;shape=mxgraph.gcp2.play_gear;fontColor=#333333;labelPosition=center;verticalLabelPosition=top;labelBackgroundColor=none;horizontal=1;spacingTop=0;" parent="1" vertex="1">
                    <mxGeometry x="5073" y="660" width="123" height="123" as="geometry"/>
                </mxCell>
                <mxCell id="737" value="" style="edgeStyle=orthogonalEdgeStyle;curved=1;html=1;endArrow=none;" parent="1" source="736" target="739" edge="1">
                    <mxGeometry relative="1" as="geometry">
                        <mxPoint x="5134.5" y="783" as="sourcePoint"/>
                        <mxPoint x="5134.5" y="1359.0000000000002" as="targetPoint"/>
                    </mxGeometry>
                </mxCell>
                <mxCell id="738" style="edgeStyle=orthogonalEdgeStyle;curved=1;html=1;" parent="1" source="739" target="733" edge="1">
                    <mxGeometry relative="1" as="geometry"/>
                </mxCell>
                <mxCell id="739" value="Generate Roll Numbers(number)" style="whiteSpace=wrap;html=1;fontSize=13;fillColor=#1ba1e2;strokeColor=#006EAF;align=left;verticalAlign=top;labelBackgroundColor=none;fontColor=#ffffff;" parent="1" vertex="1">
                    <mxGeometry x="5059" y="890" width="153" height="71" as="geometry"/>
                </mxCell>
                <mxCell id="740" style="edgeStyle=orthogonalEdgeStyle;curved=1;html=1;entryX=0;entryY=0.5;entryDx=0;entryDy=0;" parent="1" target="760" edge="1">
                    <mxGeometry relative="1" as="geometry">
                        <mxPoint x="4497" y="1202.428571428572" as="sourcePoint"/>
                    </mxGeometry>
                </mxCell>
                <mxCell id="741" value="Generate Roll Numbers(number)" style="whiteSpace=wrap;html=1;fontSize=13;fillColor=#1ba1e2;strokeColor=#006EAF;align=left;verticalAlign=top;labelBackgroundColor=none;fontColor=#ffffff;" parent="1" vertex="1">
                    <mxGeometry x="5059" y="891" width="153" height="71" as="geometry"/>
                </mxCell>
                <mxCell id="743" value="Generate Roll Numbers(number)" style="whiteSpace=wrap;html=1;fontSize=13;fillColor=#1ba1e2;strokeColor=#006EAF;align=left;verticalAlign=top;labelBackgroundColor=none;fontColor=#ffffff;" parent="1" vertex="1">
                    <mxGeometry x="5059" y="890" width="153" height="71" as="geometry"/>
                </mxCell>
                <mxCell id="745" value="Generate Roll Numbers(number)" style="whiteSpace=wrap;html=1;fontSize=13;fillColor=#1ba1e2;strokeColor=#006EAF;align=left;verticalAlign=top;labelBackgroundColor=none;fontColor=#ffffff;" parent="1" vertex="1">
                    <mxGeometry x="5059" y="889" width="153" height="71" as="geometry"/>
                </mxCell>
                <mxCell id="747" value="Generate Roll Numbers(number)" style="whiteSpace=wrap;html=1;fontSize=13;fillColor=#1ba1e2;strokeColor=#006EAF;align=left;verticalAlign=top;labelBackgroundColor=none;fontColor=#ffffff;" parent="1" vertex="1">
                    <mxGeometry x="5058" y="889" width="153" height="71" as="geometry"/>
                </mxCell>
                <mxCell id="749" style="edgeStyle=orthogonalEdgeStyle;curved=1;html=1;fontSize=10;fontColor=#FFFFFF;exitX=0.508;exitY=0.992;exitDx=0;exitDy=0;exitPerimeter=0;" parent="1" source="755" target="751" edge="1">
                    <mxGeometry relative="1" as="geometry">
                        <mxPoint x="5579.5" y="784" as="sourcePoint"/>
                    </mxGeometry>
                </mxCell>
                <mxCell id="750" style="edgeStyle=orthogonalEdgeStyle;curved=1;html=1;fontSize=10;fontColor=#FFFFFF;" parent="1" source="751" target="754" edge="1">
                    <mxGeometry relative="1" as="geometry"/>
                </mxCell>
                <mxCell id="751" value="Inspect Dice" style="whiteSpace=wrap;html=1;fontSize=13;fillColor=#1ba1e2;strokeColor=#006EAF;align=left;verticalAlign=top;labelBackgroundColor=none;fontColor=#ffffff;" parent="1" vertex="1">
                    <mxGeometry x="5503" y="887" width="153" height="71" as="geometry"/>
                </mxCell>
                <mxCell id="753" style="edgeStyle=orthogonalEdgeStyle;curved=1;html=1;entryX=0;entryY=0.5;entryDx=0;entryDy=0;" parent="1" source="754" target="757" edge="1">
                    <mxGeometry relative="1" as="geometry"/>
                </mxCell>
                <mxCell id="770" style="edgeStyle=orthogonalEdgeStyle;curved=1;html=1;entryX=0;entryY=0.5;entryDx=0;entryDy=0;" parent="1" source="754" target="769" edge="1">
                    <mxGeometry relative="1" as="geometry"/>
                </mxCell>
                <mxCell id="754" value="Dice Inspected:&lt;br&gt;scorable: true" style="whiteSpace=wrap;html=1;fontSize=13;fillColor=#FFFFCC;strokeColor=none;align=left;verticalAlign=top;fontColor=#000000;" parent="1" vertex="1">
                    <mxGeometry x="5503" y="1525" width="153" height="71" as="geometry"/>
                </mxCell>
                <mxCell id="755" value="&lt;font style=&quot;font-size: 19px;&quot;&gt;&lt;br&gt;&lt;span style=&quot;color: rgb(255, 255, 255); font-family: Helvetica; font-style: normal; font-variant-ligatures: normal; font-variant-caps: normal; font-weight: 400; letter-spacing: normal; orphans: 2; text-align: center; text-indent: 0px; text-transform: none; widows: 2; word-spacing: 0px; -webkit-text-stroke-width: 0px; text-decoration-thickness: initial; text-decoration-style: initial; text-decoration-color: initial; float: none; display: inline !important;&quot;&gt;&lt;br&gt;Dice Inspector&lt;/span&gt;&lt;br&gt;&lt;/font&gt;" style="sketch=0;html=1;aspect=fixed;strokeColor=#666666;shadow=0;align=center;verticalAlign=bottom;fillColor=#00FFFF;shape=mxgraph.gcp2.play_gear;fontColor=#333333;labelPosition=center;verticalLabelPosition=top;labelBackgroundColor=none;horizontal=1;spacingTop=0;" parent="1" vertex="1">
                    <mxGeometry x="5517.5" y="661" width="123" height="123" as="geometry"/>
                </mxCell>
                <mxCell id="848" style="edgeStyle=orthogonalEdgeStyle;curved=1;html=1;entryX=0;entryY=0.5;entryDx=0;entryDy=0;" edge="1" parent="1" source="757" target="831">
                    <mxGeometry relative="1" as="geometry"/>
                </mxCell>
                <mxCell id="757" value="Banks Points:&lt;br&gt;enabled: true" style="whiteSpace=wrap;html=1;fontSize=13;fillColor=#99FF99;strokeColor=none;align=left;verticalAlign=top;labelBackgroundColor=none;fontColor=#000000;" parent="1" vertex="1">
                    <mxGeometry x="5739" y="1158.5" width="153" height="71" as="geometry"/>
                </mxCell>
                <mxCell id="758" style="edgeStyle=orthogonalEdgeStyle;curved=1;html=1;fontSize=10;fontColor=#FFFFFF;exitX=0.508;exitY=0.992;exitDx=0;exitDy=0;exitPerimeter=0;" parent="1" source="763" target="760" edge="1">
                    <mxGeometry relative="1" as="geometry">
                        <mxPoint x="4670.5" y="782" as="sourcePoint"/>
                    </mxGeometry>
                </mxCell>
                <mxCell id="759" style="edgeStyle=orthogonalEdgeStyle;curved=1;html=1;fontSize=10;fontColor=#FFFFFF;" parent="1" source="760" target="762" edge="1">
                    <mxGeometry relative="1" as="geometry"/>
                </mxCell>
                <mxCell id="760" value="Inspect Scores" style="whiteSpace=wrap;html=1;fontSize=13;fillColor=#1ba1e2;strokeColor=#006EAF;align=left;verticalAlign=top;labelBackgroundColor=none;fontColor=#ffffff;" parent="1" vertex="1">
                    <mxGeometry x="4594" y="885" width="153" height="71" as="geometry"/>
                </mxCell>
                <mxCell id="761" style="edgeStyle=orthogonalEdgeStyle;curved=1;html=1;entryX=0;entryY=0.5;entryDx=0;entryDy=0;" parent="1" source="762" target="765" edge="1">
                    <mxGeometry relative="1" as="geometry"/>
                </mxCell>
                <mxCell id="762" value="WinnerInspected:&lt;br&gt;winnerFound:false" style="whiteSpace=wrap;html=1;fontSize=13;fillColor=#FFFFCC;strokeColor=none;align=left;verticalAlign=top;fontColor=#000000;" parent="1" vertex="1">
                    <mxGeometry x="4594" y="1533" width="153" height="71" as="geometry"/>
                </mxCell>
                <mxCell id="763" value="&lt;font style=&quot;font-size: 19px;&quot;&gt;&lt;br&gt;&lt;span style=&quot;color: rgb(255, 255, 255); font-family: Helvetica; font-style: normal; font-variant-ligatures: normal; font-variant-caps: normal; font-weight: 400; letter-spacing: normal; orphans: 2; text-align: center; text-indent: 0px; text-transform: none; widows: 2; word-spacing: 0px; -webkit-text-stroke-width: 0px; text-decoration-thickness: initial; text-decoration-style: initial; text-decoration-color: initial; float: none; display: inline !important;&quot;&gt;&lt;br&gt;Winner Inspector&lt;/span&gt;&lt;br&gt;&lt;/font&gt;" style="sketch=0;html=1;aspect=fixed;strokeColor=#666666;shadow=0;align=center;verticalAlign=bottom;fillColor=#00FFFF;shape=mxgraph.gcp2.play_gear;fontColor=#333333;labelPosition=center;verticalLabelPosition=top;labelBackgroundColor=none;horizontal=1;spacingTop=0;" parent="1" vertex="1">
                    <mxGeometry x="4608.5" y="659" width="123" height="123" as="geometry"/>
                </mxCell>
                <mxCell id="764" style="edgeStyle=orthogonalEdgeStyle;curved=1;html=1;entryX=0;entryY=0.5;entryDx=0;entryDy=0;exitX=1;exitY=0.5;exitDx=0;exitDy=0;" parent="1" source="814" target="747" edge="1">
                    <mxGeometry relative="1" as="geometry"/>
                </mxCell>
                <mxCell id="765" value="Winner:&lt;br&gt;null" style="whiteSpace=wrap;html=1;fontSize=13;fillColor=#99FF99;strokeColor=none;align=left;verticalAlign=top;labelBackgroundColor=none;fontColor=#000000;" parent="1" vertex="1">
                    <mxGeometry x="4836" y="1172" width="153" height="71" as="geometry"/>
                </mxCell>
                <mxCell id="847" style="edgeStyle=orthogonalEdgeStyle;curved=1;html=1;entryX=0;entryY=0.5;entryDx=0;entryDy=0;" edge="1" parent="1" source="769" target="831">
                    <mxGeometry relative="1" as="geometry"/>
                </mxCell>
                <mxCell id="769" value="Dice:&lt;br&gt;1,3,5,6" style="whiteSpace=wrap;html=1;fontSize=13;fillColor=#99FF99;strokeColor=none;align=left;verticalAlign=top;labelBackgroundColor=none;fontColor=#000000;" parent="1" vertex="1">
                    <mxGeometry x="5739" y="1077" width="153" height="71" as="geometry"/>
                </mxCell>
                <mxCell id="807" style="edgeStyle=orthogonalEdgeStyle;html=1;entryX=0;entryY=0.5;entryDx=0;entryDy=0;curved=1;" edge="1" parent="1" source="780" target="802">
                    <mxGeometry relative="1" as="geometry"/>
                </mxCell>
                <mxCell id="780" value="Scores:&lt;br&gt;player 1 score: 300&lt;br&gt;player 2 score: 0" style="whiteSpace=wrap;html=1;fontSize=13;fillColor=#99FF99;strokeColor=none;align=left;verticalAlign=top;labelBackgroundColor=none;fontColor=#000000;" parent="1" vertex="1">
                    <mxGeometry x="6771" y="1167" width="153" height="71" as="geometry"/>
                </mxCell>
                <mxCell id="800" style="edgeStyle=orthogonalEdgeStyle;curved=1;html=1;fontSize=10;fontColor=#FFFFFF;exitX=0.508;exitY=0.992;exitDx=0;exitDy=0;exitPerimeter=0;" parent="1" source="805" target="802" edge="1">
                    <mxGeometry relative="1" as="geometry">
                        <mxPoint x="7087.5" y="782" as="sourcePoint"/>
                    </mxGeometry>
                </mxCell>
                <mxCell id="801" style="edgeStyle=orthogonalEdgeStyle;curved=1;html=1;fontSize=10;fontColor=#FFFFFF;" parent="1" source="802" target="804" edge="1">
                    <mxGeometry relative="1" as="geometry"/>
                </mxCell>
                <mxCell id="802" value="Inspect Scores" style="whiteSpace=wrap;html=1;fontSize=13;fillColor=#1ba1e2;strokeColor=#006EAF;align=left;verticalAlign=top;labelBackgroundColor=none;fontColor=#ffffff;" parent="1" vertex="1">
                    <mxGeometry x="7011" y="885" width="153" height="71" as="geometry"/>
                </mxCell>
                <mxCell id="803" style="edgeStyle=orthogonalEdgeStyle;curved=1;html=1;entryX=0;entryY=0.5;entryDx=0;entryDy=0;" parent="1" source="804" target="1006" edge="1">
                    <mxGeometry relative="1" as="geometry">
                        <mxPoint x="7252" y="1335.5000000000005" as="targetPoint"/>
                    </mxGeometry>
                </mxCell>
                <mxCell id="804" value="Socres Inspected:&lt;br&gt;winner:false" style="whiteSpace=wrap;html=1;fontSize=13;fillColor=#FFFFCC;strokeColor=none;align=left;verticalAlign=top;fontColor=#000000;" parent="1" vertex="1">
                    <mxGeometry x="7011" y="1533" width="153" height="71" as="geometry"/>
                </mxCell>
                <mxCell id="805" value="&lt;font style=&quot;font-size: 19px;&quot;&gt;&lt;br&gt;&lt;span style=&quot;color: rgb(255, 255, 255); font-family: Helvetica; font-style: normal; font-variant-ligatures: normal; font-variant-caps: normal; font-weight: 400; letter-spacing: normal; orphans: 2; text-align: center; text-indent: 0px; text-transform: none; widows: 2; word-spacing: 0px; -webkit-text-stroke-width: 0px; text-decoration-thickness: initial; text-decoration-style: initial; text-decoration-color: initial; float: none; display: inline !important;&quot;&gt;&lt;br&gt;Winner Inspector&lt;/span&gt;&lt;br&gt;&lt;/font&gt;" style="sketch=0;html=1;aspect=fixed;strokeColor=#666666;shadow=0;align=center;verticalAlign=bottom;fillColor=#00FFFF;shape=mxgraph.gcp2.play_gear;fontColor=#333333;labelPosition=center;verticalLabelPosition=top;labelBackgroundColor=none;horizontal=1;spacingTop=0;" parent="1" vertex="1">
                    <mxGeometry x="7025.5" y="659" width="123" height="123" as="geometry"/>
                </mxCell>
                <mxCell id="808" value="TurnEnded&lt;br&gt;true" style="whiteSpace=wrap;html=1;fontSize=13;fillColor=#99FF99;strokeColor=none;align=left;verticalAlign=top;labelBackgroundColor=none;fontColor=#000000;" vertex="1" parent="1">
                    <mxGeometry x="6771" y="1087" width="153" height="71" as="geometry"/>
                </mxCell>
                <mxCell id="812" value="Dice Roll::&lt;br&gt;requested:true" style="whiteSpace=wrap;html=1;fontSize=13;fillColor=#99FF99;strokeColor=none;align=left;verticalAlign=top;labelBackgroundColor=none;fontColor=#000000;" vertex="1" parent="1">
                    <mxGeometry x="4343" y="1087.5" width="153" height="71" as="geometry"/>
                </mxCell>
                <mxCell id="814" value="Dice Roll::&lt;br&gt;requested:true" style="whiteSpace=wrap;html=1;fontSize=13;fillColor=#99FF99;strokeColor=none;align=left;verticalAlign=top;labelBackgroundColor=none;fontColor=#000000;" vertex="1" parent="1">
                    <mxGeometry x="4836" y="1093" width="153" height="71" as="geometry"/>
                </mxCell>
                <mxCell id="867" style="edgeStyle=orthogonalEdgeStyle;curved=1;html=1;exitX=0;exitY=1;exitDx=0;exitDy=0;" edge="1" parent="1" source="815" target="862">
                    <mxGeometry relative="1" as="geometry"/>
                </mxCell>
                <mxCell id="815" value="" style="whiteSpace=wrap;html=1;movable=1;resizable=1;rotatable=1;deletable=1;editable=1;connectable=1;" vertex="1" parent="1">
                    <mxGeometry x="7522" y="536" width="360" height="280" as="geometry"/>
                </mxCell>
                <mxCell id="816" value="&lt;font color=&quot;#ffffff&quot;&gt;Game Score&lt;/font&gt;&lt;br&gt;&lt;font color=&quot;#00ff00&quot;&gt;Player 1: 300&lt;/font&gt;&lt;br&gt;&lt;span style=&quot;color: rgb(255, 255, 255);&quot;&gt;Player 2: 0&lt;/span&gt;&lt;font color=&quot;#ffffff&quot;&gt;&lt;br&gt;&lt;/font&gt;" style="whiteSpace=wrap;html=1;rounded=0;strokeColor=#000000;fontColor=#808080;fillColor=#333333;align=left;verticalAlign=top;" vertex="1" parent="1">
                    <mxGeometry x="7762" y="561.8" width="90" height="122.22" as="geometry"/>
                </mxCell>
                <mxCell id="817" value="Current Player" style="rounded=0;whiteSpace=wrap;html=1;fontSize=12;fillColor=none;" vertex="1" parent="1">
                    <mxGeometry x="7542.68" y="561" width="99.32" height="22.97" as="geometry"/>
                </mxCell>
                <mxCell id="818" value="2" style="whiteSpace=wrap;html=1;fontSize=12;fillColor=#60a917;fontColor=#ffffff;strokeColor=#2D7600;" vertex="1" parent="1">
                    <mxGeometry x="7642" y="561" width="32.27" height="22.94" as="geometry"/>
                </mxCell>
                <mxCell id="819" value="Roll Dice" style="rounded=1;whiteSpace=wrap;html=1;strokeColor=#001DBC;fontSize=10;fontColor=#ffffff;fillColor=#0050ef;gradientColor=none;" vertex="1" parent="1">
                    <mxGeometry x="7542" y="654.02" width="60" height="20" as="geometry"/>
                </mxCell>
                <mxCell id="820" value="Bank Points" style="rounded=1;whiteSpace=wrap;html=1;strokeColor=#23445d;fontSize=10;fontColor=#808080;fillColor=#333333;verticalAlign=middle;gradientColor=none;" vertex="1" parent="1">
                    <mxGeometry x="7613" y="654.02" width="60" height="20" as="geometry"/>
                </mxCell>
                <mxCell id="821" value="1" style="whiteSpace=wrap;html=1;aspect=fixed;fontColor=#000000;fillColor=#FFFFFF;strokeColor=#000000;rounded=1;container=0;" vertex="1" parent="1">
                    <mxGeometry x="7661" y="619" width="20" height="20" as="geometry"/>
                </mxCell>
                <mxCell id="822" value="1" style="whiteSpace=wrap;html=1;aspect=fixed;fontColor=#000000;fillColor=#FFFFFF;strokeColor=#000000;rounded=1;container=0;" vertex="1" parent="1">
                    <mxGeometry x="7542" y="619" width="20" height="20" as="geometry"/>
                </mxCell>
                <mxCell id="823" value="3" style="whiteSpace=wrap;html=1;aspect=fixed;fontColor=#000000;fillColor=#FFFFFF;strokeColor=#000000;rounded=1;container=0;" vertex="1" parent="1">
                    <mxGeometry x="7572" y="619" width="20" height="20" as="geometry"/>
                </mxCell>
                <mxCell id="824" value="5" style="whiteSpace=wrap;html=1;aspect=fixed;fontColor=#000000;fillColor=#FFFFFF;strokeColor=#000000;rounded=1;container=0;" vertex="1" parent="1">
                    <mxGeometry x="7602" y="619" width="20" height="20" as="geometry"/>
                </mxCell>
                <mxCell id="825" value="6" style="whiteSpace=wrap;html=1;aspect=fixed;fontColor=#000000;fillColor=#FFFFFF;strokeColor=#000000;rounded=1;container=0;" vertex="1" parent="1">
                    <mxGeometry x="7632" y="619" width="20" height="20" as="geometry"/>
                </mxCell>
                <mxCell id="826" value="5" style="whiteSpace=wrap;html=1;aspect=fixed;fontColor=#000000;fillColor=#FFFFFF;strokeColor=#000000;rounded=1;container=0;" vertex="1" parent="1">
                    <mxGeometry x="7689" y="619" width="20" height="20" as="geometry"/>
                </mxCell>
                <mxCell id="827" value="Turn Points:" style="rounded=0;whiteSpace=wrap;html=1;fontSize=12;fillColor=none;strokeColor=none;align=right;" vertex="1" parent="1">
                    <mxGeometry x="7545.68" y="718" width="80.41" height="22.97" as="geometry"/>
                </mxCell>
                <mxCell id="828" value="" style="whiteSpace=wrap;html=1;fontSize=12;align=left;fillColor=#333333;strokeColor=#314354;fontColor=#ffffff;" vertex="1" parent="1">
                    <mxGeometry x="7633.09" y="718" width="65.59" height="22.94" as="geometry"/>
                </mxCell>
                <mxCell id="849" style="edgeStyle=orthogonalEdgeStyle;curved=1;html=1;entryX=0;entryY=0.5;entryDx=0;entryDy=0;" edge="1" parent="1" source="831" target="502">
                    <mxGeometry relative="1" as="geometry"/>
                </mxCell>
                <mxCell id="831" value="" style="whiteSpace=wrap;html=1;movable=1;resizable=1;rotatable=1;deletable=1;editable=1;connectable=1;" vertex="1" parent="1">
                    <mxGeometry x="6017" y="536" width="360" height="280" as="geometry"/>
                </mxCell>
                <mxCell id="832" value="&lt;font color=&quot;#ffffff&quot;&gt;Game Score&lt;br&gt;Player 1: 0&lt;br&gt;&lt;/font&gt;&lt;span style=&quot;color: rgb(255, 255, 255);&quot;&gt;Player 2: 0&lt;/span&gt;&lt;font color=&quot;#ffffff&quot;&gt;&lt;br&gt;&lt;/font&gt;" style="whiteSpace=wrap;html=1;rounded=0;strokeColor=#000000;fontColor=#808080;fillColor=#333333;align=left;verticalAlign=top;" vertex="1" parent="1">
                    <mxGeometry x="6258" y="561.8" width="90" height="122.22" as="geometry"/>
                </mxCell>
                <mxCell id="833" value="Current Player" style="rounded=0;whiteSpace=wrap;html=1;fontSize=12;fillColor=none;" vertex="1" parent="1">
                    <mxGeometry x="6037.68" y="561" width="99.32" height="22.97" as="geometry"/>
                </mxCell>
                <mxCell id="834" value="1" style="whiteSpace=wrap;html=1;fontSize=12;" vertex="1" parent="1">
                    <mxGeometry x="6137" y="561" width="32.27" height="22.94" as="geometry"/>
                </mxCell>
                <mxCell id="835" value="Roll Dice" style="rounded=1;whiteSpace=wrap;html=1;strokeColor=#2D7600;fontSize=10;fontColor=#ffffff;fillColor=#60a917;gradientColor=none;" vertex="1" parent="1">
                    <mxGeometry x="6037" y="654.02" width="60" height="20" as="geometry"/>
                </mxCell>
                <mxCell id="836" value="Bank Points" style="rounded=1;whiteSpace=wrap;html=1;strokeColor=#001DBC;fontSize=10;fontColor=#ffffff;fillColor=#0050ef;verticalAlign=middle;" vertex="1" parent="1">
                    <mxGeometry x="6108" y="654.02" width="60" height="20" as="geometry"/>
                </mxCell>
                <mxCell id="837" value="1" style="whiteSpace=wrap;html=1;aspect=fixed;fontColor=#000000;fillColor=#FFFFFF;strokeColor=#000000;rounded=1;container=0;" vertex="1" parent="1">
                    <mxGeometry x="6037" y="688" width="20" height="20" as="geometry"/>
                </mxCell>
                <mxCell id="838" value="1" style="whiteSpace=wrap;html=1;aspect=fixed;fontColor=#ffffff;fillColor=#0050ef;strokeColor=#001DBC;rounded=1;container=0;" vertex="1" parent="1">
                    <mxGeometry x="6037" y="619" width="20" height="20" as="geometry"/>
                </mxCell>
                <mxCell id="839" value="3" style="whiteSpace=wrap;html=1;aspect=fixed;fontColor=#ffffff;fillColor=#60a917;strokeColor=#2D7600;rounded=1;container=0;" vertex="1" parent="1">
                    <mxGeometry x="6067" y="619" width="20" height="20" as="geometry"/>
                </mxCell>
                <mxCell id="840" value="5" style="whiteSpace=wrap;html=1;aspect=fixed;fontColor=#ffffff;fillColor=#0050ef;strokeColor=#001DBC;rounded=1;container=0;" vertex="1" parent="1">
                    <mxGeometry x="6097" y="619" width="20" height="20" as="geometry"/>
                </mxCell>
                <mxCell id="841" value="6" style="whiteSpace=wrap;html=1;aspect=fixed;fontColor=#ffffff;fillColor=#60a917;strokeColor=#2D7600;rounded=1;container=0;" vertex="1" parent="1">
                    <mxGeometry x="6127" y="619" width="20" height="20" as="geometry"/>
                </mxCell>
                <mxCell id="842" value="5" style="whiteSpace=wrap;html=1;aspect=fixed;fontColor=#000000;fillColor=#FFFFFF;strokeColor=#000000;rounded=1;container=0;" vertex="1" parent="1">
                    <mxGeometry x="6067" y="687" width="20" height="20" as="geometry"/>
                </mxCell>
                <mxCell id="843" value="Turn Points:" style="rounded=0;whiteSpace=wrap;html=1;fontSize=12;fillColor=none;strokeColor=none;align=right;" vertex="1" parent="1">
                    <mxGeometry x="6040.68" y="718" width="80.41" height="22.97" as="geometry"/>
                </mxCell>
                <mxCell id="844" value="150" style="whiteSpace=wrap;html=1;fontSize=12;align=left;fillColor=#333333;strokeColor=#314354;fontColor=#ffffff;" vertex="1" parent="1">
                    <mxGeometry x="6128.09" y="718" width="65.59" height="22.94" as="geometry"/>
                </mxCell>
                <mxCell id="861" style="edgeStyle=orthogonalEdgeStyle;curved=1;html=1;fontColor=#FFFFFF;entryX=0.485;entryY=0.38;entryDx=0;entryDy=0;entryPerimeter=0;" edge="1" parent="1" source="862" target="865">
                    <mxGeometry relative="1" as="geometry"/>
                </mxCell>
                <mxCell id="862" value="Rolll Dice" style="whiteSpace=wrap;html=1;fontSize=13;fillColor=#1ba1e2;strokeColor=#006EAF;align=left;verticalAlign=top;labelBackgroundColor=none;fontColor=#ffffff;" vertex="1" parent="1">
                    <mxGeometry x="7520" y="861" width="153" height="71" as="geometry"/>
                </mxCell>
                <mxCell id="863" value="Scores:&lt;br&gt;player 1 score: 300&lt;br&gt;player 2 score: 0" style="whiteSpace=wrap;html=1;fontSize=13;fillColor=#99FF99;strokeColor=none;align=left;verticalAlign=top;labelBackgroundColor=none;fontColor=#000000;" vertex="1" parent="1">
                    <mxGeometry x="7774" y="1167" width="153" height="71" as="geometry"/>
                </mxCell>
                <mxCell id="864" style="edgeStyle=orthogonalEdgeStyle;curved=1;html=1;entryX=0;entryY=0.5;entryDx=0;entryDy=0;" edge="1" parent="1" source="865" target="866">
                    <mxGeometry relative="1" as="geometry"/>
                </mxCell>
                <mxCell id="868" style="edgeStyle=orthogonalEdgeStyle;curved=1;html=1;entryX=0;entryY=0.5;entryDx=0;entryDy=0;" edge="1" parent="1" source="865" target="863">
                    <mxGeometry relative="1" as="geometry"/>
                </mxCell>
                <mxCell id="865" value="LuckTried:&lt;br&gt;diceRolled: 1,2,5,6,1,5&lt;br&gt;meldsKept:&amp;nbsp;&lt;br&gt;bankedPoints: false" style="whiteSpace=wrap;html=1;fontSize=13;fillColor=#FFFFCC;strokeColor=none;align=left;verticalAlign=top;fontColor=#000000;" vertex="1" parent="1">
                    <mxGeometry x="7521.84" y="1387" width="153" height="71" as="geometry"/>
                </mxCell>
                <mxCell id="866" value="Dice Roll::&lt;br&gt;requested:true" style="whiteSpace=wrap;html=1;fontSize=13;fillColor=#99FF99;strokeColor=none;align=left;verticalAlign=top;labelBackgroundColor=none;fontColor=#000000;" vertex="1" parent="1">
                    <mxGeometry x="7773" y="1087.5" width="153" height="71" as="geometry"/>
                </mxCell>
                <mxCell id="869" style="edgeStyle=orthogonalEdgeStyle;curved=1;html=1;entryX=0;entryY=0.5;entryDx=0;entryDy=0;fontSize=12;fontColor=#FFFFFF;exitX=1;exitY=0.5;exitDx=0;exitDy=0;" edge="1" parent="1" source="870" target="872">
                    <mxGeometry relative="1" as="geometry">
                        <mxPoint x="8651" y="1588.5" as="sourcePoint"/>
                    </mxGeometry>
                </mxCell>
                <mxCell id="870" value="Roll Generated:&lt;br&gt;6,4,5,5,1,2" style="whiteSpace=wrap;html=1;fontSize=13;fillColor=#FFFFCC;strokeColor=none;align=left;verticalAlign=top;fontColor=#000000;" vertex="1" parent="1">
                    <mxGeometry x="8498" y="1670" width="153" height="71" as="geometry"/>
                </mxCell>
                <mxCell id="871" style="edgeStyle=orthogonalEdgeStyle;curved=1;html=1;entryX=0;entryY=0.5;entryDx=0;entryDy=0;" edge="1" parent="1" source="872" target="884">
                    <mxGeometry relative="1" as="geometry"/>
                </mxCell>
                <mxCell id="872" value="Generated Values:&lt;br&gt;6,4,5,5,1,2" style="whiteSpace=wrap;html=1;fontSize=13;fillColor=#99FF99;strokeColor=none;align=left;verticalAlign=top;labelBackgroundColor=none;fontColor=#000000;" vertex="1" parent="1">
                    <mxGeometry x="8725" y="1080" width="153" height="71" as="geometry"/>
                </mxCell>
                <mxCell id="873" value="&lt;font style=&quot;font-size: 19px;&quot;&gt;&lt;br&gt;&lt;span style=&quot;color: rgb(255, 255, 255); font-family: Helvetica; font-style: normal; font-variant-ligatures: normal; font-variant-caps: normal; font-weight: 400; letter-spacing: normal; orphans: 2; text-align: center; text-indent: 0px; text-transform: none; widows: 2; word-spacing: 0px; -webkit-text-stroke-width: 0px; text-decoration-thickness: initial; text-decoration-style: initial; text-decoration-color: initial; float: none; display: inline !important;&quot;&gt;&lt;br&gt;Roll Generator&lt;/span&gt;&lt;br&gt;&lt;/font&gt;" style="sketch=0;html=1;aspect=fixed;strokeColor=#666666;shadow=0;align=center;verticalAlign=bottom;fillColor=#00FFFF;shape=mxgraph.gcp2.play_gear;fontColor=#333333;labelPosition=center;verticalLabelPosition=top;labelBackgroundColor=none;horizontal=1;spacingTop=0;" vertex="1" parent="1">
                    <mxGeometry x="8513" y="660" width="123" height="123" as="geometry"/>
                </mxCell>
                <mxCell id="874" value="" style="edgeStyle=orthogonalEdgeStyle;curved=1;html=1;endArrow=none;" edge="1" parent="1" source="873" target="876">
                    <mxGeometry relative="1" as="geometry">
                        <mxPoint x="8574.5" y="783" as="sourcePoint"/>
                        <mxPoint x="8574.5" y="1359.0000000000002" as="targetPoint"/>
                    </mxGeometry>
                </mxCell>
                <mxCell id="875" style="edgeStyle=orthogonalEdgeStyle;curved=1;html=1;" edge="1" parent="1" source="876" target="870">
                    <mxGeometry relative="1" as="geometry"/>
                </mxCell>
                <mxCell id="876" value="Generate Roll Numbers(number)" style="whiteSpace=wrap;html=1;fontSize=13;fillColor=#1ba1e2;strokeColor=#006EAF;align=left;verticalAlign=top;labelBackgroundColor=none;fontColor=#ffffff;" vertex="1" parent="1">
                    <mxGeometry x="8499" y="890" width="153" height="71" as="geometry"/>
                </mxCell>
                <mxCell id="877" style="edgeStyle=orthogonalEdgeStyle;curved=1;html=1;entryX=0;entryY=0.5;entryDx=0;entryDy=0;" edge="1" parent="1" target="892" source="863">
                    <mxGeometry relative="1" as="geometry">
                        <mxPoint x="7937" y="1202.4285714285725" as="sourcePoint"/>
                    </mxGeometry>
                </mxCell>
                <mxCell id="878" value="Generate Roll Numbers(number)" style="whiteSpace=wrap;html=1;fontSize=13;fillColor=#1ba1e2;strokeColor=#006EAF;align=left;verticalAlign=top;labelBackgroundColor=none;fontColor=#ffffff;" vertex="1" parent="1">
                    <mxGeometry x="8499" y="891" width="153" height="71" as="geometry"/>
                </mxCell>
                <mxCell id="879" value="Generate Roll Numbers(number)" style="whiteSpace=wrap;html=1;fontSize=13;fillColor=#1ba1e2;strokeColor=#006EAF;align=left;verticalAlign=top;labelBackgroundColor=none;fontColor=#ffffff;" vertex="1" parent="1">
                    <mxGeometry x="8499" y="890" width="153" height="71" as="geometry"/>
                </mxCell>
                <mxCell id="880" value="Generate Roll Numbers(number)" style="whiteSpace=wrap;html=1;fontSize=13;fillColor=#1ba1e2;strokeColor=#006EAF;align=left;verticalAlign=top;labelBackgroundColor=none;fontColor=#ffffff;" vertex="1" parent="1">
                    <mxGeometry x="8499" y="889" width="153" height="71" as="geometry"/>
                </mxCell>
                <mxCell id="881" value="Generate Roll Numbers(number)" style="whiteSpace=wrap;html=1;fontSize=13;fillColor=#1ba1e2;strokeColor=#006EAF;align=left;verticalAlign=top;labelBackgroundColor=none;fontColor=#ffffff;" vertex="1" parent="1">
                    <mxGeometry x="8498" y="889" width="153" height="71" as="geometry"/>
                </mxCell>
                <mxCell id="882" style="edgeStyle=orthogonalEdgeStyle;curved=1;html=1;fontSize=10;fontColor=#FFFFFF;exitX=0.508;exitY=0.992;exitDx=0;exitDy=0;exitPerimeter=0;" edge="1" parent="1" source="888" target="884">
                    <mxGeometry relative="1" as="geometry">
                        <mxPoint x="9019.5" y="784" as="sourcePoint"/>
                    </mxGeometry>
                </mxCell>
                <mxCell id="883" style="edgeStyle=orthogonalEdgeStyle;curved=1;html=1;fontSize=10;fontColor=#FFFFFF;" edge="1" parent="1" source="884" target="887">
                    <mxGeometry relative="1" as="geometry"/>
                </mxCell>
                <mxCell id="884" value="Inspect Dice" style="whiteSpace=wrap;html=1;fontSize=13;fillColor=#1ba1e2;strokeColor=#006EAF;align=left;verticalAlign=top;labelBackgroundColor=none;fontColor=#ffffff;" vertex="1" parent="1">
                    <mxGeometry x="8943" y="887" width="153" height="71" as="geometry"/>
                </mxCell>
                <mxCell id="885" style="edgeStyle=orthogonalEdgeStyle;curved=1;html=1;entryX=0;entryY=0.5;entryDx=0;entryDy=0;" edge="1" parent="1" source="887" target="889">
                    <mxGeometry relative="1" as="geometry"/>
                </mxCell>
                <mxCell id="886" style="edgeStyle=orthogonalEdgeStyle;curved=1;html=1;entryX=0;entryY=0.5;entryDx=0;entryDy=0;" edge="1" parent="1" source="887" target="898">
                    <mxGeometry relative="1" as="geometry"/>
                </mxCell>
                <mxCell id="921" style="edgeStyle=orthogonalEdgeStyle;curved=1;html=1;entryX=0;entryY=0.5;entryDx=0;entryDy=0;fontColor=#00FF00;" edge="1" parent="1" source="887" target="902">
                    <mxGeometry relative="1" as="geometry"/>
                </mxCell>
                <mxCell id="887" value="Dice Inspected:&lt;br&gt;scorable: true" style="whiteSpace=wrap;html=1;fontSize=13;fillColor=#FFFFCC;strokeColor=none;align=left;verticalAlign=top;fontColor=#000000;" vertex="1" parent="1">
                    <mxGeometry x="8943" y="1525" width="153" height="71" as="geometry"/>
                </mxCell>
                <mxCell id="888" value="&lt;font style=&quot;font-size: 19px;&quot;&gt;&lt;br&gt;&lt;span style=&quot;color: rgb(255, 255, 255); font-family: Helvetica; font-style: normal; font-variant-ligatures: normal; font-variant-caps: normal; font-weight: 400; letter-spacing: normal; orphans: 2; text-align: center; text-indent: 0px; text-transform: none; widows: 2; word-spacing: 0px; -webkit-text-stroke-width: 0px; text-decoration-thickness: initial; text-decoration-style: initial; text-decoration-color: initial; float: none; display: inline !important;&quot;&gt;&lt;br&gt;Dice Inspector&lt;/span&gt;&lt;br&gt;&lt;/font&gt;" style="sketch=0;html=1;aspect=fixed;strokeColor=#666666;shadow=0;align=center;verticalAlign=bottom;fillColor=#00FFFF;shape=mxgraph.gcp2.play_gear;fontColor=#333333;labelPosition=center;verticalLabelPosition=top;labelBackgroundColor=none;horizontal=1;spacingTop=0;" vertex="1" parent="1">
                    <mxGeometry x="8957.5" y="661" width="123" height="123" as="geometry"/>
                </mxCell>
                <mxCell id="889" value="Banks Points:&lt;br&gt;enabled: true" style="whiteSpace=wrap;html=1;fontSize=13;fillColor=#99FF99;strokeColor=none;align=left;verticalAlign=top;labelBackgroundColor=none;fontColor=#000000;" vertex="1" parent="1">
                    <mxGeometry x="9179" y="1158.5" width="153" height="71" as="geometry"/>
                </mxCell>
                <mxCell id="890" style="edgeStyle=orthogonalEdgeStyle;curved=1;html=1;fontSize=10;fontColor=#FFFFFF;exitX=0.508;exitY=0.992;exitDx=0;exitDy=0;exitPerimeter=0;" edge="1" parent="1" source="895" target="892">
                    <mxGeometry relative="1" as="geometry">
                        <mxPoint x="8110.5" y="782" as="sourcePoint"/>
                    </mxGeometry>
                </mxCell>
                <mxCell id="891" style="edgeStyle=orthogonalEdgeStyle;curved=1;html=1;fontSize=10;fontColor=#FFFFFF;" edge="1" parent="1" source="892" target="894">
                    <mxGeometry relative="1" as="geometry"/>
                </mxCell>
                <mxCell id="892" value="Inspect Scores" style="whiteSpace=wrap;html=1;fontSize=13;fillColor=#1ba1e2;strokeColor=#006EAF;align=left;verticalAlign=top;labelBackgroundColor=none;fontColor=#ffffff;" vertex="1" parent="1">
                    <mxGeometry x="8034" y="885" width="153" height="71" as="geometry"/>
                </mxCell>
                <mxCell id="893" style="edgeStyle=orthogonalEdgeStyle;curved=1;html=1;entryX=0;entryY=0.5;entryDx=0;entryDy=0;" edge="1" parent="1" source="894" target="897">
                    <mxGeometry relative="1" as="geometry"/>
                </mxCell>
                <mxCell id="894" value="WinnerInspected:&lt;br&gt;winnerFound:false" style="whiteSpace=wrap;html=1;fontSize=13;fillColor=#FFFFCC;strokeColor=none;align=left;verticalAlign=top;fontColor=#000000;" vertex="1" parent="1">
                    <mxGeometry x="8034" y="1533" width="153" height="71" as="geometry"/>
                </mxCell>
                <mxCell id="895" value="&lt;font style=&quot;font-size: 19px;&quot;&gt;&lt;br&gt;&lt;span style=&quot;color: rgb(255, 255, 255); font-family: Helvetica; font-style: normal; font-variant-ligatures: normal; font-variant-caps: normal; font-weight: 400; letter-spacing: normal; orphans: 2; text-align: center; text-indent: 0px; text-transform: none; widows: 2; word-spacing: 0px; -webkit-text-stroke-width: 0px; text-decoration-thickness: initial; text-decoration-style: initial; text-decoration-color: initial; float: none; display: inline !important;&quot;&gt;&lt;br&gt;Winner Inspector&lt;/span&gt;&lt;br&gt;&lt;/font&gt;" style="sketch=0;html=1;aspect=fixed;strokeColor=#666666;shadow=0;align=center;verticalAlign=bottom;fillColor=#00FFFF;shape=mxgraph.gcp2.play_gear;fontColor=#333333;labelPosition=center;verticalLabelPosition=top;labelBackgroundColor=none;horizontal=1;spacingTop=0;" vertex="1" parent="1">
                    <mxGeometry x="8048.5" y="659" width="123" height="123" as="geometry"/>
                </mxCell>
                <mxCell id="896" style="edgeStyle=orthogonalEdgeStyle;curved=1;html=1;entryX=0;entryY=0.5;entryDx=0;entryDy=0;exitX=1;exitY=0.5;exitDx=0;exitDy=0;" edge="1" parent="1" source="899" target="881">
                    <mxGeometry relative="1" as="geometry"/>
                </mxCell>
                <mxCell id="897" value="Winner:&lt;br&gt;null" style="whiteSpace=wrap;html=1;fontSize=13;fillColor=#99FF99;strokeColor=none;align=left;verticalAlign=top;labelBackgroundColor=none;fontColor=#000000;" vertex="1" parent="1">
                    <mxGeometry x="8276" y="1172" width="153" height="71" as="geometry"/>
                </mxCell>
                <mxCell id="898" value="Dice:&lt;br&gt;6,4,5,5,1,2" style="whiteSpace=wrap;html=1;fontSize=13;fillColor=#99FF99;strokeColor=none;align=left;verticalAlign=top;labelBackgroundColor=none;fontColor=#000000;" vertex="1" parent="1">
                    <mxGeometry x="9179" y="1076" width="153" height="71" as="geometry"/>
                </mxCell>
                <mxCell id="899" value="Dice Roll::&lt;br&gt;requested:true" style="whiteSpace=wrap;html=1;fontSize=13;fillColor=#99FF99;strokeColor=none;align=left;verticalAlign=top;labelBackgroundColor=none;fontColor=#000000;" vertex="1" parent="1">
                    <mxGeometry x="8276" y="1093" width="153" height="71" as="geometry"/>
                </mxCell>
                <mxCell id="902" value="Roll Dice:&lt;br&gt;enabled: false" style="whiteSpace=wrap;html=1;fontSize=13;fillColor=#99FF99;strokeColor=none;align=left;verticalAlign=top;labelBackgroundColor=none;fontColor=#000000;" vertex="1" parent="1">
                    <mxGeometry x="9179" y="1240" width="153" height="71" as="geometry"/>
                </mxCell>
                <mxCell id="925" style="edgeStyle=orthogonalEdgeStyle;curved=1;html=1;entryX=0;entryY=0.25;entryDx=0;entryDy=0;fontSize=12;fontColor=#FFFFFF;exitX=1;exitY=0.5;exitDx=0;exitDy=0;" edge="1" parent="1" source="942" target="935">
                    <mxGeometry relative="1" as="geometry">
                        <mxPoint x="9592.84" y="1564.5555555555557" as="sourcePoint"/>
                    </mxGeometry>
                </mxCell>
                <mxCell id="926" style="edgeStyle=orthogonalEdgeStyle;curved=1;html=1;exitX=0;exitY=1;exitDx=0;exitDy=0;fontSize=12;fontColor=#FFFFFF;" edge="1" parent="1" source="927" target="933">
                    <mxGeometry relative="1" as="geometry"/>
                </mxCell>
                <mxCell id="927" value="" style="whiteSpace=wrap;html=1;movable=1;resizable=1;rotatable=1;deletable=1;editable=1;connectable=1;" vertex="1" parent="1">
                    <mxGeometry x="9442" y="530" width="360" height="280" as="geometry"/>
                </mxCell>
                <mxCell id="928" value="&lt;font color=&quot;#ffffff&quot;&gt;Game Score&lt;br&gt;Player 1: 0&lt;br&gt;&lt;/font&gt;&lt;span style=&quot;color: rgb(255, 255, 255);&quot;&gt;Player 2: 0&lt;/span&gt;&lt;font color=&quot;#ffffff&quot;&gt;&lt;br&gt;&lt;/font&gt;" style="whiteSpace=wrap;html=1;rounded=0;strokeColor=#000000;fontColor=#808080;fillColor=#333333;align=left;verticalAlign=top;" vertex="1" parent="1">
                    <mxGeometry x="9682" y="555.8" width="90" height="122.22" as="geometry"/>
                </mxCell>
                <mxCell id="929" value="Current Player" style="rounded=0;whiteSpace=wrap;html=1;fontSize=12;fillColor=none;" vertex="1" parent="1">
                    <mxGeometry x="9462.68" y="555" width="99.32" height="22.97" as="geometry"/>
                </mxCell>
                <mxCell id="930" value="2" style="whiteSpace=wrap;html=1;fontSize=12;" vertex="1" parent="1">
                    <mxGeometry x="9562" y="555" width="32.27" height="22.94" as="geometry"/>
                </mxCell>
                <mxCell id="931" value="Roll Dice" style="rounded=1;whiteSpace=wrap;html=1;strokeColor=#23445d;fontSize=10;fontColor=#808080;fillColor=#333333;" vertex="1" parent="1">
                    <mxGeometry x="9462" y="648.02" width="60" height="20" as="geometry"/>
                </mxCell>
                <mxCell id="932" style="edgeStyle=orthogonalEdgeStyle;curved=1;html=1;fontSize=12;fontColor=#FFFFFF;entryX=0.5;entryY=0;entryDx=0;entryDy=0;" edge="1" parent="1" source="933" target="942">
                    <mxGeometry relative="1" as="geometry">
                        <mxPoint x="9516.333333333334" y="1529" as="targetPoint"/>
                    </mxGeometry>
                </mxCell>
                <mxCell id="933" value="Pick Die" style="whiteSpace=wrap;html=1;fontSize=13;fillColor=#1ba1e2;strokeColor=#006EAF;align=left;verticalAlign=top;labelBackgroundColor=none;fontColor=#ffffff;" vertex="1" parent="1">
                    <mxGeometry x="9441.27" y="890" width="153" height="71" as="geometry"/>
                </mxCell>
                <mxCell id="934" style="edgeStyle=orthogonalEdgeStyle;curved=1;html=1;entryX=0;entryY=0.5;entryDx=0;entryDy=0;fontSize=16;" edge="1" parent="1" source="935" target="944">
                    <mxGeometry relative="1" as="geometry"/>
                </mxCell>
                <mxCell id="935" value="Turn points:&lt;br&gt;100" style="whiteSpace=wrap;html=1;fontSize=13;fillColor=#99FF99;strokeColor=none;align=left;verticalAlign=top;labelBackgroundColor=none;fontColor=#000000;" vertex="1" parent="1">
                    <mxGeometry x="9800" y="1075" width="153" height="71" as="geometry"/>
                </mxCell>
                <mxCell id="936" value="Bank Points" style="rounded=1;whiteSpace=wrap;html=1;strokeColor=#2D7600;fontSize=10;fontColor=#ffffff;fillColor=#60a917;verticalAlign=middle;" vertex="1" parent="1">
                    <mxGeometry x="9535" y="648.02" width="60" height="20" as="geometry"/>
                </mxCell>
                <mxCell id="937" value="Turn Points:" style="rounded=0;whiteSpace=wrap;html=1;fontSize=12;fillColor=none;strokeColor=none;align=right;" vertex="1" parent="1">
                    <mxGeometry x="9462.68" y="714" width="80.41" height="22.97" as="geometry"/>
                </mxCell>
                <mxCell id="938" value="0" style="whiteSpace=wrap;html=1;fontSize=12;align=left;fillColor=#333333;strokeColor=#999999;" vertex="1" parent="1">
                    <mxGeometry x="9550.09" y="714" width="65.59" height="22.94" as="geometry"/>
                </mxCell>
                <mxCell id="939" style="edgeStyle=orthogonalEdgeStyle;curved=1;html=1;entryX=0;entryY=0.5;entryDx=0;entryDy=0;fontSize=16;" edge="1" parent="1" source="942" target="966">
                    <mxGeometry relative="1" as="geometry"/>
                </mxCell>
                <mxCell id="940" style="edgeStyle=orthogonalEdgeStyle;curved=1;html=1;entryX=0;entryY=0.5;entryDx=0;entryDy=0;fontSize=16;" edge="1" parent="1" source="942" target="968">
                    <mxGeometry relative="1" as="geometry"/>
                </mxCell>
                <mxCell id="942" value="Die Picked:&lt;br&gt;1" style="whiteSpace=wrap;html=1;fontSize=13;fillColor=#FFFFCC;strokeColor=none;align=left;verticalAlign=top;fontColor=#000000;" vertex="1" parent="1">
                    <mxGeometry x="9439.84" y="1526" width="153" height="71" as="geometry"/>
                </mxCell>
                <mxCell id="943" style="edgeStyle=orthogonalEdgeStyle;curved=1;html=1;exitX=0;exitY=1;exitDx=0;exitDy=0;entryX=0.5;entryY=0;entryDx=0;entryDy=0;fontSize=16;" edge="1" parent="1" source="944" target="959">
                    <mxGeometry relative="1" as="geometry"/>
                </mxCell>
                <mxCell id="944" value="" style="whiteSpace=wrap;html=1;movable=1;resizable=1;rotatable=1;deletable=1;editable=1;connectable=1;" vertex="1" parent="1">
                    <mxGeometry x="10074" y="536" width="360" height="280" as="geometry"/>
                </mxCell>
                <mxCell id="945" value="&lt;font color=&quot;#ffffff&quot;&gt;Game Score&lt;br&gt;Player 1: 0&lt;br&gt;&lt;/font&gt;&lt;span style=&quot;color: rgb(255, 255, 255);&quot;&gt;Player 2: 0&lt;/span&gt;&lt;font color=&quot;#ffffff&quot;&gt;&lt;br&gt;&lt;/font&gt;" style="whiteSpace=wrap;html=1;rounded=0;strokeColor=#000000;fontColor=#808080;fillColor=#333333;align=left;verticalAlign=top;" vertex="1" parent="1">
                    <mxGeometry x="10314" y="561.8" width="90" height="122.22" as="geometry"/>
                </mxCell>
                <mxCell id="946" value="Current Player" style="rounded=0;whiteSpace=wrap;html=1;fontSize=12;fillColor=none;" vertex="1" parent="1">
                    <mxGeometry x="10094.68" y="561" width="99.32" height="22.97" as="geometry"/>
                </mxCell>
                <mxCell id="947" value="2" style="whiteSpace=wrap;html=1;fontSize=12;" vertex="1" parent="1">
                    <mxGeometry x="10194" y="561" width="32.27" height="22.94" as="geometry"/>
                </mxCell>
                <mxCell id="948" value="Roll Dice" style="rounded=1;whiteSpace=wrap;html=1;strokeColor=#2D7600;fontSize=10;fontColor=#ffffff;fillColor=#60a917;" vertex="1" parent="1">
                    <mxGeometry x="10094" y="655.02" width="60" height="20" as="geometry"/>
                </mxCell>
                <mxCell id="949" value="Bank Points" style="rounded=1;whiteSpace=wrap;html=1;strokeColor=#2D7600;fontSize=10;fontColor=#ffffff;fillColor=#60a917;verticalAlign=middle;" vertex="1" parent="1">
                    <mxGeometry x="10165" y="655.02" width="60" height="20" as="geometry"/>
                </mxCell>
                <mxCell id="950" value="Turn Points:" style="rounded=0;whiteSpace=wrap;html=1;fontSize=12;fillColor=none;strokeColor=none;align=right;" vertex="1" parent="1">
                    <mxGeometry x="10094.68" y="718" width="80.41" height="22.97" as="geometry"/>
                </mxCell>
                <mxCell id="951" value="100" style="whiteSpace=wrap;html=1;fontSize=12;align=left;fillColor=#60a917;strokeColor=#2D7600;fontColor=#ffffff;" vertex="1" parent="1">
                    <mxGeometry x="10182.09" y="718" width="65.59" height="22.94" as="geometry"/>
                </mxCell>
                <mxCell id="952" value="1" style="whiteSpace=wrap;html=1;aspect=fixed;fontColor=#ffffff;fillColor=#60a917;strokeColor=#2D7600;rounded=1;container=0;" vertex="1" parent="1">
                    <mxGeometry x="10094" y="690" width="20" height="20" as="geometry"/>
                </mxCell>
                <mxCell id="953" value="2" style="whiteSpace=wrap;html=1;aspect=fixed;fontColor=#000000;fillColor=#FFFFFF;strokeColor=#000000;rounded=1;container=0;" vertex="1" parent="1">
                    <mxGeometry x="10094" y="619" width="20" height="20" as="geometry"/>
                </mxCell>
                <mxCell id="954" value="3" style="whiteSpace=wrap;html=1;aspect=fixed;fontColor=#000000;fillColor=#FFFFFF;strokeColor=#000000;rounded=1;container=0;" vertex="1" parent="1">
                    <mxGeometry x="10124" y="619" width="20" height="20" as="geometry"/>
                </mxCell>
                <mxCell id="955" value="2" style="whiteSpace=wrap;html=1;aspect=fixed;fontColor=#000000;fillColor=#FFFFFF;strokeColor=#000000;rounded=1;container=0;" vertex="1" parent="1">
                    <mxGeometry x="10154" y="619" width="20" height="20" as="geometry"/>
                </mxCell>
                <mxCell id="956" value="5" style="whiteSpace=wrap;html=1;aspect=fixed;fontColor=#000000;fillColor=#FFFFFF;strokeColor=#000000;rounded=1;container=0;" vertex="1" parent="1">
                    <mxGeometry x="10184" y="619" width="20" height="20" as="geometry"/>
                </mxCell>
                <mxCell id="957" value="5" style="whiteSpace=wrap;html=1;aspect=fixed;fontColor=#ffffff;fillColor=#0050ef;strokeColor=#001DBC;rounded=1;container=0;" vertex="1" parent="1">
                    <mxGeometry x="10244" y="619" width="20" height="20" as="geometry"/>
                </mxCell>
                <mxCell id="958" style="edgeStyle=orthogonalEdgeStyle;curved=1;html=1;exitX=0.5;exitY=1;exitDx=0;exitDy=0;entryX=0.5;entryY=0;entryDx=0;entryDy=0;fontSize=16;" edge="1" parent="1" source="959" target="964">
                    <mxGeometry relative="1" as="geometry"/>
                </mxCell>
                <mxCell id="959" value="Pick Die" style="whiteSpace=wrap;html=1;fontSize=13;fillColor=#1ba1e2;strokeColor=#006EAF;align=left;verticalAlign=top;labelBackgroundColor=none;fontColor=#ffffff;" vertex="1" parent="1">
                    <mxGeometry x="10071.43" y="869" width="153" height="71" as="geometry"/>
                </mxCell>
                <mxCell id="961" style="edgeStyle=orthogonalEdgeStyle;curved=1;html=1;entryX=0;entryY=0.5;entryDx=0;entryDy=0;fontColor=#FFFFFF;" edge="1" parent="1" source="964" target="973">
                    <mxGeometry relative="1" as="geometry"/>
                </mxCell>
                <mxCell id="962" style="edgeStyle=orthogonalEdgeStyle;curved=1;html=1;entryX=0;entryY=0.5;entryDx=0;entryDy=0;fontColor=#FFFFFF;" edge="1" parent="1" source="964" target="974">
                    <mxGeometry relative="1" as="geometry"/>
                </mxCell>
                <mxCell id="963" style="edgeStyle=orthogonalEdgeStyle;curved=1;html=1;entryX=0;entryY=0.5;entryDx=0;entryDy=0;fontColor=#FFFFFF;" edge="1" parent="1" source="964" target="975">
                    <mxGeometry relative="1" as="geometry"/>
                </mxCell>
                <mxCell id="964" value="Die Picked:&lt;br&gt;5" style="whiteSpace=wrap;html=1;fontSize=13;fillColor=#FFFFCC;strokeColor=none;align=left;verticalAlign=top;fontColor=#000000;" vertex="1" parent="1">
                    <mxGeometry x="10070" y="1529" width="153" height="71" as="geometry"/>
                </mxCell>
                <mxCell id="965" style="edgeStyle=orthogonalEdgeStyle;curved=1;html=1;entryX=0;entryY=0.5;entryDx=0;entryDy=0;fontSize=16;" edge="1" parent="1" source="966" target="944">
                    <mxGeometry relative="1" as="geometry"/>
                </mxCell>
                <mxCell id="966" value="Banks Points:&lt;br&gt;enabled: true" style="whiteSpace=wrap;html=1;fontSize=13;fillColor=#99FF99;strokeColor=none;align=left;verticalAlign=top;labelBackgroundColor=none;fontColor=#000000;" vertex="1" parent="1">
                    <mxGeometry x="9800" y="992" width="153" height="71" as="geometry"/>
                </mxCell>
                <mxCell id="967" style="edgeStyle=orthogonalEdgeStyle;curved=1;html=1;entryX=0;entryY=0.5;entryDx=0;entryDy=0;fontSize=16;" edge="1" parent="1" source="968" target="944">
                    <mxGeometry relative="1" as="geometry"/>
                </mxCell>
                <mxCell id="968" value="Roll Dice:&lt;br&gt;enabled: true" style="whiteSpace=wrap;html=1;fontSize=13;fillColor=#99FF99;strokeColor=none;align=left;verticalAlign=top;labelBackgroundColor=none;fontColor=#000000;" vertex="1" parent="1">
                    <mxGeometry x="9800" y="909" width="153" height="71" as="geometry"/>
                </mxCell>
                <mxCell id="969" value="Melds:" style="rounded=0;whiteSpace=wrap;html=1;fontSize=12;fillColor=none;strokeColor=none;align=right;" vertex="1" parent="1">
                    <mxGeometry x="9460.68" y="742" width="80.41" height="22.97" as="geometry"/>
                </mxCell>
                <mxCell id="1027" style="edgeStyle=orthogonalEdgeStyle;curved=1;html=1;entryX=0;entryY=0.5;entryDx=0;entryDy=0;fontColor=#FFFFFF;" edge="1" parent="1" source="973" target="986">
                    <mxGeometry relative="1" as="geometry"/>
                </mxCell>
                <mxCell id="973" value="Turn points:&lt;br&gt;150" style="whiteSpace=wrap;html=1;fontSize=13;fillColor=#99FF99;strokeColor=none;align=left;verticalAlign=top;labelBackgroundColor=none;fontColor=#000000;" vertex="1" parent="1">
                    <mxGeometry x="10444" y="1075" width="153" height="71" as="geometry"/>
                </mxCell>
                <mxCell id="1026" style="edgeStyle=orthogonalEdgeStyle;curved=1;html=1;entryX=0;entryY=0.5;entryDx=0;entryDy=0;fontColor=#FFFFFF;" edge="1" parent="1" source="974" target="986">
                    <mxGeometry relative="1" as="geometry"/>
                </mxCell>
                <mxCell id="974" value="Banks Points:&lt;br&gt;enabled: true" style="whiteSpace=wrap;html=1;fontSize=13;fillColor=#99FF99;strokeColor=none;align=left;verticalAlign=top;labelBackgroundColor=none;fontColor=#000000;" vertex="1" parent="1">
                    <mxGeometry x="10444" y="992" width="153" height="71" as="geometry"/>
                </mxCell>
                <mxCell id="1025" style="edgeStyle=orthogonalEdgeStyle;curved=1;html=1;entryX=0;entryY=0.5;entryDx=0;entryDy=0;fontColor=#FFFFFF;" edge="1" parent="1" source="975" target="986">
                    <mxGeometry relative="1" as="geometry"/>
                </mxCell>
                <mxCell id="975" value="Roll Dice:&lt;br&gt;enabled: true" style="whiteSpace=wrap;html=1;fontSize=13;fillColor=#99FF99;strokeColor=none;align=left;verticalAlign=top;labelBackgroundColor=none;fontColor=#000000;" vertex="1" parent="1">
                    <mxGeometry x="10444" y="909" width="153" height="71" as="geometry"/>
                </mxCell>
                <mxCell id="977" style="edgeStyle=orthogonalEdgeStyle;curved=1;html=1;entryX=0;entryY=0.5;entryDx=0;entryDy=0;exitX=1;exitY=0.5;exitDx=0;exitDy=0;" edge="1" parent="1" target="927" source="898">
                    <mxGeometry relative="1" as="geometry">
                        <mxPoint x="9328" y="1112" as="sourcePoint"/>
                    </mxGeometry>
                </mxCell>
                <mxCell id="978" style="edgeStyle=orthogonalEdgeStyle;curved=1;html=1;entryX=0;entryY=0.5;entryDx=0;entryDy=0;exitX=1;exitY=0.5;exitDx=0;exitDy=0;" edge="1" parent="1" target="927" source="889">
                    <mxGeometry relative="1" as="geometry">
                        <mxPoint x="9333" y="1194" as="sourcePoint"/>
                    </mxGeometry>
                </mxCell>
                <mxCell id="979" value="2" style="whiteSpace=wrap;html=1;aspect=fixed;fontColor=#ffffff;fillColor=#60a917;strokeColor=#2D7600;rounded=1;container=0;" vertex="1" parent="1">
                    <mxGeometry x="9462" y="613" width="20" height="20" as="geometry"/>
                </mxCell>
                <mxCell id="980" value="3" style="whiteSpace=wrap;html=1;aspect=fixed;fontColor=#ffffff;fillColor=#60a917;strokeColor=#2D7600;rounded=1;container=0;" vertex="1" parent="1">
                    <mxGeometry x="9492" y="613" width="20" height="20" as="geometry"/>
                </mxCell>
                <mxCell id="981" value="2" style="whiteSpace=wrap;html=1;aspect=fixed;fontColor=#ffffff;fillColor=#60a917;strokeColor=#2D7600;rounded=1;container=0;" vertex="1" parent="1">
                    <mxGeometry x="9522" y="613" width="20" height="20" as="geometry"/>
                </mxCell>
                <mxCell id="982" value="5" style="whiteSpace=wrap;html=1;aspect=fixed;fontColor=#ffffff;fillColor=#60a917;strokeColor=#2D7600;rounded=1;container=0;" vertex="1" parent="1">
                    <mxGeometry x="9552" y="613" width="20" height="20" as="geometry"/>
                </mxCell>
                <mxCell id="983" value="1" style="whiteSpace=wrap;html=1;aspect=fixed;fontColor=#ffffff;fillColor=#0050ef;strokeColor=#001DBC;rounded=1;container=0;" vertex="1" parent="1">
                    <mxGeometry x="9582" y="613" width="20" height="20" as="geometry"/>
                </mxCell>
                <mxCell id="984" value="5" style="whiteSpace=wrap;html=1;aspect=fixed;fontColor=#ffffff;fillColor=#60a917;strokeColor=#2D7600;rounded=1;container=0;" vertex="1" parent="1">
                    <mxGeometry x="9612" y="613" width="20" height="20" as="geometry"/>
                </mxCell>
                <mxCell id="1028" style="edgeStyle=orthogonalEdgeStyle;curved=1;html=1;exitX=0;exitY=1;exitDx=0;exitDy=0;fontColor=#FFFFFF;" edge="1" parent="1" source="986" target="1021">
                    <mxGeometry relative="1" as="geometry"/>
                </mxCell>
                <mxCell id="986" value="" style="whiteSpace=wrap;html=1;movable=1;resizable=1;rotatable=1;deletable=1;editable=1;connectable=1;" vertex="1" parent="1">
                    <mxGeometry x="10664" y="536" width="360" height="280" as="geometry"/>
                </mxCell>
                <mxCell id="987" value="&lt;font color=&quot;#ffffff&quot;&gt;Game Score&lt;br&gt;Player 1: 0&lt;br&gt;&lt;/font&gt;&lt;span style=&quot;color: rgb(255, 255, 255);&quot;&gt;Player 2: 0&lt;/span&gt;&lt;font color=&quot;#ffffff&quot;&gt;&lt;br&gt;&lt;/font&gt;" style="whiteSpace=wrap;html=1;rounded=0;strokeColor=#000000;fontColor=#808080;fillColor=#333333;align=left;verticalAlign=top;" vertex="1" parent="1">
                    <mxGeometry x="10904" y="561.8" width="90" height="122.22" as="geometry"/>
                </mxCell>
                <mxCell id="988" value="Current Player" style="rounded=0;whiteSpace=wrap;html=1;fontSize=12;fillColor=none;" vertex="1" parent="1">
                    <mxGeometry x="10684.68" y="561" width="99.32" height="22.97" as="geometry"/>
                </mxCell>
                <mxCell id="989" value="2" style="whiteSpace=wrap;html=1;fontSize=12;" vertex="1" parent="1">
                    <mxGeometry x="10784" y="561" width="32.27" height="22.94" as="geometry"/>
                </mxCell>
                <mxCell id="990" value="Roll Dice" style="rounded=1;whiteSpace=wrap;html=1;strokeColor=#001DBC;fontSize=10;fontColor=#ffffff;fillColor=#0050ef;" vertex="1" parent="1">
                    <mxGeometry x="10684" y="655.02" width="60" height="20" as="geometry"/>
                </mxCell>
                <mxCell id="991" value="Bank Points" style="rounded=1;whiteSpace=wrap;html=1;strokeColor=#2D7600;fontSize=10;fontColor=#ffffff;fillColor=#60a917;verticalAlign=middle;" vertex="1" parent="1">
                    <mxGeometry x="10755" y="655.02" width="60" height="20" as="geometry"/>
                </mxCell>
                <mxCell id="992" value="Turn Points:" style="rounded=0;whiteSpace=wrap;html=1;fontSize=12;fillColor=none;strokeColor=none;align=right;" vertex="1" parent="1">
                    <mxGeometry x="10684.68" y="718" width="80.41" height="22.97" as="geometry"/>
                </mxCell>
                <mxCell id="993" value="150" style="whiteSpace=wrap;html=1;fontSize=12;align=left;fillColor=#60a917;strokeColor=#2D7600;fontColor=#ffffff;" vertex="1" parent="1">
                    <mxGeometry x="10772.09" y="718" width="65.59" height="22.94" as="geometry"/>
                </mxCell>
                <mxCell id="994" value="1" style="whiteSpace=wrap;html=1;aspect=fixed;fontColor=#000000;fillColor=#FFFFFF;strokeColor=#000000;rounded=1;container=0;" vertex="1" parent="1">
                    <mxGeometry x="10684" y="690" width="20" height="20" as="geometry"/>
                </mxCell>
                <mxCell id="995" value="2" style="whiteSpace=wrap;html=1;aspect=fixed;fontColor=#000000;fillColor=#FFFFFF;strokeColor=#000000;rounded=1;container=0;" vertex="1" parent="1">
                    <mxGeometry x="10684" y="619" width="20" height="20" as="geometry"/>
                </mxCell>
                <mxCell id="996" value="3" style="whiteSpace=wrap;html=1;aspect=fixed;fontColor=#000000;fillColor=#FFFFFF;strokeColor=#000000;rounded=1;container=0;" vertex="1" parent="1">
                    <mxGeometry x="10714" y="619" width="20" height="20" as="geometry"/>
                </mxCell>
                <mxCell id="997" value="2" style="whiteSpace=wrap;html=1;aspect=fixed;fontColor=#000000;fillColor=#FFFFFF;strokeColor=#000000;rounded=1;container=0;" vertex="1" parent="1">
                    <mxGeometry x="10744" y="619" width="20" height="20" as="geometry"/>
                </mxCell>
                <mxCell id="998" value="5" style="whiteSpace=wrap;html=1;aspect=fixed;fontColor=#000000;fillColor=#FFFFFF;strokeColor=#000000;rounded=1;container=0;" vertex="1" parent="1">
                    <mxGeometry x="10774" y="619" width="20" height="20" as="geometry"/>
                </mxCell>
                <mxCell id="999" value="5" style="whiteSpace=wrap;html=1;aspect=fixed;fontColor=#ffffff;fillColor=#60a917;strokeColor=#2D7600;rounded=1;container=0;" vertex="1" parent="1">
                    <mxGeometry x="10714" y="690" width="20" height="20" as="geometry"/>
                </mxCell>
                <mxCell id="1003" style="edgeStyle=orthogonalEdgeStyle;curved=1;html=1;entryX=0;entryY=0.5;entryDx=0;entryDy=0;fontColor=#FFFFFF;" edge="1" parent="1" source="1002" target="110">
                    <mxGeometry relative="1" as="geometry"/>
                </mxCell>
                <mxCell id="1002" value="Roll Dice:&lt;br&gt;Enabled" style="whiteSpace=wrap;html=1;fontSize=13;fillColor=#99FF99;strokeColor=none;align=left;verticalAlign=top;labelBackgroundColor=none;fontColor=#000000;" vertex="1" parent="1">
                    <mxGeometry x="641" y="1333" width="153" height="71" as="geometry"/>
                </mxCell>
                <mxCell id="1010" style="edgeStyle=orthogonalEdgeStyle;curved=1;html=1;fontColor=#FFFFFF;entryX=0;entryY=0.5;entryDx=0;entryDy=0;" edge="1" parent="1" source="1004" target="815">
                    <mxGeometry relative="1" as="geometry">
                        <mxPoint x="7458" y="665" as="targetPoint"/>
                    </mxGeometry>
                </mxCell>
                <mxCell id="1004" value="Turn points:&lt;br&gt;0" style="whiteSpace=wrap;html=1;fontSize=13;fillColor=#99FF99;strokeColor=none;align=left;verticalAlign=top;labelBackgroundColor=none;fontColor=#000000;" vertex="1" parent="1">
                    <mxGeometry x="7261" y="1248" width="153" height="71" as="geometry"/>
                </mxCell>
                <mxCell id="1009" style="edgeStyle=orthogonalEdgeStyle;curved=1;html=1;entryX=0;entryY=0.5;entryDx=0;entryDy=0;fontColor=#FFFFFF;" edge="1" parent="1" source="1005" target="815">
                    <mxGeometry relative="1" as="geometry"/>
                </mxCell>
                <mxCell id="1005" value="Current Player&lt;br&gt;2" style="whiteSpace=wrap;html=1;fontSize=13;fillColor=#99FF99;strokeColor=none;align=left;verticalAlign=top;labelBackgroundColor=none;fontColor=#000000;" vertex="1" parent="1">
                    <mxGeometry x="7261" y="1165" width="153" height="71" as="geometry"/>
                </mxCell>
                <mxCell id="1013" style="edgeStyle=orthogonalEdgeStyle;curved=1;html=1;entryX=0;entryY=0.5;entryDx=0;entryDy=0;fontColor=#FFFFFF;" edge="1" parent="1" source="1006" target="815">
                    <mxGeometry relative="1" as="geometry"/>
                </mxCell>
                <mxCell id="1006" value="Scores:&lt;br&gt;player 1 score: 300&lt;br&gt;player 2 score: 0" style="whiteSpace=wrap;html=1;fontSize=13;fillColor=#99FF99;strokeColor=none;align=left;verticalAlign=top;labelBackgroundColor=none;fontColor=#000000;" vertex="1" parent="1">
                    <mxGeometry x="7261" y="1000" width="150.85" height="70" as="geometry"/>
                </mxCell>
                <mxCell id="1014" style="edgeStyle=orthogonalEdgeStyle;curved=1;html=1;entryX=0;entryY=0.5;entryDx=0;entryDy=0;fontColor=#FFFFFF;" edge="1" parent="1" source="1007" target="815">
                    <mxGeometry relative="1" as="geometry"/>
                </mxCell>
                <mxCell id="1007" value="Roll Dice:&lt;br&gt;Enabled" style="whiteSpace=wrap;html=1;fontSize=13;fillColor=#99FF99;strokeColor=none;align=left;verticalAlign=top;labelBackgroundColor=none;fontColor=#000000;" vertex="1" parent="1">
                    <mxGeometry x="7261" y="1331" width="153" height="71" as="geometry"/>
                </mxCell>
                <mxCell id="1015" style="edgeStyle=orthogonalEdgeStyle;curved=1;html=1;entryX=0;entryY=0.5;entryDx=0;entryDy=0;fontColor=#FFFFFF;" edge="1" parent="1" source="1008" target="815">
                    <mxGeometry relative="1" as="geometry"/>
                </mxCell>
                <mxCell id="1008" value="Bank Points:&lt;br&gt;Disabled" style="whiteSpace=wrap;html=1;fontSize=13;fillColor=#99FF99;strokeColor=none;align=left;verticalAlign=top;labelBackgroundColor=none;fontColor=#000000;" vertex="1" parent="1">
                    <mxGeometry x="7261" y="1414" width="153" height="71" as="geometry"/>
                </mxCell>
                <mxCell id="1012" style="edgeStyle=orthogonalEdgeStyle;curved=1;html=1;entryX=0;entryY=0.5;entryDx=0;entryDy=0;fontColor=#FFFFFF;" edge="1" parent="1" source="1011" target="815">
                    <mxGeometry relative="1" as="geometry"/>
                </mxCell>
                <mxCell id="1011" value="Turn Ended" style="whiteSpace=wrap;html=1;fontSize=13;fillColor=#99FF99;strokeColor=none;align=left;verticalAlign=top;labelBackgroundColor=none;fontColor=#000000;" vertex="1" parent="1">
                    <mxGeometry x="7261" y="1082" width="153" height="71" as="geometry"/>
                </mxCell>
                <mxCell id="1029" style="edgeStyle=orthogonalEdgeStyle;curved=1;html=1;fontColor=#FFFFFF;" edge="1" parent="1" source="1021" target="1022">
                    <mxGeometry relative="1" as="geometry"/>
                </mxCell>
                <mxCell id="1021" value="Roll Dice" style="whiteSpace=wrap;html=1;fontSize=13;fillColor=#1ba1e2;strokeColor=#006EAF;align=left;verticalAlign=top;labelBackgroundColor=none;fontColor=#ffffff;" vertex="1" parent="1">
                    <mxGeometry x="10668" y="868" width="153" height="71" as="geometry"/>
                </mxCell>
                <mxCell id="1032" style="edgeStyle=orthogonalEdgeStyle;curved=1;html=1;entryX=0;entryY=0.5;entryDx=0;entryDy=0;fontColor=#FFFFFF;" edge="1" parent="1" source="1022" target="1031">
                    <mxGeometry relative="1" as="geometry"/>
                </mxCell>
                <mxCell id="1033" style="edgeStyle=orthogonalEdgeStyle;curved=1;html=1;entryX=0;entryY=0.5;entryDx=0;entryDy=0;fontColor=#FFFFFF;" edge="1" parent="1" source="1022" target="1030">
                    <mxGeometry relative="1" as="geometry"/>
                </mxCell>
                <mxCell id="1022" value="LuckTried:&lt;br&gt;diceRolled: 2.3.2.5&lt;br&gt;meldsKept: 1,5&lt;br&gt;bankedPoints: false" style="whiteSpace=wrap;html=1;fontSize=13;fillColor=#FFFFCC;strokeColor=none;align=left;verticalAlign=top;fontColor=#000000;" vertex="1" parent="1">
                    <mxGeometry x="10668" y="1397" width="153" height="71" as="geometry"/>
                </mxCell>
                <mxCell id="1067" style="edgeStyle=orthogonalEdgeStyle;curved=1;html=1;entryX=0;entryY=0.5;entryDx=0;entryDy=0;fontColor=#FFFFFF;" edge="1" parent="1" source="1030" target="1057">
                    <mxGeometry relative="1" as="geometry"/>
                </mxCell>
                <mxCell id="1030" value="Scores:&lt;br&gt;player 1 score: 150&lt;br&gt;player 2 score: 0" style="whiteSpace=wrap;html=1;fontSize=13;fillColor=#99FF99;strokeColor=none;align=left;verticalAlign=top;labelBackgroundColor=none;fontColor=#000000;" vertex="1" parent="1">
                    <mxGeometry x="10986" y="1172.5" width="153" height="71" as="geometry"/>
                </mxCell>
                <mxCell id="1066" style="edgeStyle=orthogonalEdgeStyle;curved=1;html=1;entryX=0;entryY=0.5;entryDx=0;entryDy=0;fontColor=#FFFFFF;" edge="1" parent="1" source="1031" target="1057">
                    <mxGeometry relative="1" as="geometry"/>
                </mxCell>
                <mxCell id="1031" value="Dice Roll::&lt;br&gt;requested:true" style="whiteSpace=wrap;html=1;fontSize=13;fillColor=#99FF99;strokeColor=none;align=left;verticalAlign=top;labelBackgroundColor=none;fontColor=#000000;" vertex="1" parent="1">
                    <mxGeometry x="10985" y="1093" width="153" height="71" as="geometry"/>
                </mxCell>
                <mxCell id="1034" style="edgeStyle=orthogonalEdgeStyle;curved=1;html=1;entryX=0;entryY=0.5;entryDx=0;entryDy=0;fontSize=12;fontColor=#FFFFFF;exitX=1;exitY=0.5;exitDx=0;exitDy=0;" edge="1" parent="1" source="1035" target="1037">
                    <mxGeometry relative="1" as="geometry">
                        <mxPoint x="11831" y="1588.5" as="sourcePoint"/>
                    </mxGeometry>
                </mxCell>
                <mxCell id="1035" value="Roll Generated:&lt;br&gt;3,4,2,2" style="whiteSpace=wrap;html=1;fontSize=13;fillColor=#FFFFCC;strokeColor=none;align=left;verticalAlign=top;fontColor=#000000;" vertex="1" parent="1">
                    <mxGeometry x="11678" y="1670" width="153" height="71" as="geometry"/>
                </mxCell>
                <mxCell id="1036" style="edgeStyle=orthogonalEdgeStyle;curved=1;html=1;entryX=0;entryY=0.5;entryDx=0;entryDy=0;" edge="1" parent="1" source="1037" target="1048">
                    <mxGeometry relative="1" as="geometry"/>
                </mxCell>
                <mxCell id="1037" value="Generated Values:&lt;br&gt;3,4,2,2" style="whiteSpace=wrap;html=1;fontSize=13;fillColor=#99FF99;strokeColor=none;align=left;verticalAlign=top;labelBackgroundColor=none;fontColor=#000000;" vertex="1" parent="1">
                    <mxGeometry x="11905" y="1080" width="153" height="71" as="geometry"/>
                </mxCell>
                <mxCell id="1038" value="&lt;font style=&quot;font-size: 19px;&quot;&gt;&lt;br&gt;&lt;span style=&quot;color: rgb(255, 255, 255); font-family: Helvetica; font-style: normal; font-variant-ligatures: normal; font-variant-caps: normal; font-weight: 400; letter-spacing: normal; orphans: 2; text-align: center; text-indent: 0px; text-transform: none; widows: 2; word-spacing: 0px; -webkit-text-stroke-width: 0px; text-decoration-thickness: initial; text-decoration-style: initial; text-decoration-color: initial; float: none; display: inline !important;&quot;&gt;&lt;br&gt;Roll Generator&lt;/span&gt;&lt;br&gt;&lt;/font&gt;" style="sketch=0;html=1;aspect=fixed;strokeColor=#666666;shadow=0;align=center;verticalAlign=bottom;fillColor=#00FFFF;shape=mxgraph.gcp2.play_gear;fontColor=#333333;labelPosition=center;verticalLabelPosition=top;labelBackgroundColor=none;horizontal=1;spacingTop=0;" vertex="1" parent="1">
                    <mxGeometry x="11693" y="660" width="123" height="123" as="geometry"/>
                </mxCell>
                <mxCell id="1039" value="" style="edgeStyle=orthogonalEdgeStyle;curved=1;html=1;endArrow=none;" edge="1" parent="1" source="1038" target="1041">
                    <mxGeometry relative="1" as="geometry">
                        <mxPoint x="11754.5" y="783" as="sourcePoint"/>
                        <mxPoint x="11754.5" y="1359.0000000000002" as="targetPoint"/>
                    </mxGeometry>
                </mxCell>
                <mxCell id="1040" style="edgeStyle=orthogonalEdgeStyle;curved=1;html=1;" edge="1" parent="1" source="1041" target="1035">
                    <mxGeometry relative="1" as="geometry"/>
                </mxCell>
                <mxCell id="1041" value="Generate Roll Numbers(number)" style="whiteSpace=wrap;html=1;fontSize=13;fillColor=#1ba1e2;strokeColor=#006EAF;align=left;verticalAlign=top;labelBackgroundColor=none;fontColor=#ffffff;" vertex="1" parent="1">
                    <mxGeometry x="11679" y="890" width="153" height="71" as="geometry"/>
                </mxCell>
                <mxCell id="1042" value="Generate Roll Numbers(number)" style="whiteSpace=wrap;html=1;fontSize=13;fillColor=#1ba1e2;strokeColor=#006EAF;align=left;verticalAlign=top;labelBackgroundColor=none;fontColor=#ffffff;" vertex="1" parent="1">
                    <mxGeometry x="11679" y="891" width="153" height="71" as="geometry"/>
                </mxCell>
                <mxCell id="1043" value="Generate Roll Numbers(number)" style="whiteSpace=wrap;html=1;fontSize=13;fillColor=#1ba1e2;strokeColor=#006EAF;align=left;verticalAlign=top;labelBackgroundColor=none;fontColor=#ffffff;" vertex="1" parent="1">
                    <mxGeometry x="11679" y="890" width="153" height="71" as="geometry"/>
                </mxCell>
                <mxCell id="1044" value="Generate Roll Numbers(number)" style="whiteSpace=wrap;html=1;fontSize=13;fillColor=#1ba1e2;strokeColor=#006EAF;align=left;verticalAlign=top;labelBackgroundColor=none;fontColor=#ffffff;" vertex="1" parent="1">
                    <mxGeometry x="11679" y="889" width="153" height="71" as="geometry"/>
                </mxCell>
                <mxCell id="1045" value="Generate Roll Numbers(number)" style="whiteSpace=wrap;html=1;fontSize=13;fillColor=#1ba1e2;strokeColor=#006EAF;align=left;verticalAlign=top;labelBackgroundColor=none;fontColor=#ffffff;" vertex="1" parent="1">
                    <mxGeometry x="11678" y="889" width="153" height="71" as="geometry"/>
                </mxCell>
                <mxCell id="1046" style="edgeStyle=orthogonalEdgeStyle;curved=1;html=1;fontSize=10;fontColor=#FFFFFF;exitX=0.508;exitY=0.992;exitDx=0;exitDy=0;exitPerimeter=0;" edge="1" parent="1" source="1053" target="1048">
                    <mxGeometry relative="1" as="geometry">
                        <mxPoint x="12199.5" y="784" as="sourcePoint"/>
                    </mxGeometry>
                </mxCell>
                <mxCell id="1047" style="edgeStyle=orthogonalEdgeStyle;curved=1;html=1;fontSize=10;fontColor=#FFFFFF;" edge="1" parent="1" source="1048" target="1052">
                    <mxGeometry relative="1" as="geometry"/>
                </mxCell>
                <mxCell id="1048" value="Inspect Dice" style="whiteSpace=wrap;html=1;fontSize=13;fillColor=#1ba1e2;strokeColor=#006EAF;align=left;verticalAlign=top;labelBackgroundColor=none;fontColor=#ffffff;" vertex="1" parent="1">
                    <mxGeometry x="12123" y="887" width="153" height="71" as="geometry"/>
                </mxCell>
                <mxCell id="1049" style="edgeStyle=orthogonalEdgeStyle;curved=1;html=1;entryX=0;entryY=0.5;entryDx=0;entryDy=0;" edge="1" parent="1" source="1052" target="1054">
                    <mxGeometry relative="1" as="geometry"/>
                </mxCell>
                <mxCell id="1050" style="edgeStyle=orthogonalEdgeStyle;curved=1;html=1;entryX=0;entryY=0.5;entryDx=0;entryDy=0;" edge="1" parent="1" source="1052" target="1063">
                    <mxGeometry relative="1" as="geometry"/>
                </mxCell>
                <mxCell id="1051" style="edgeStyle=orthogonalEdgeStyle;curved=1;html=1;entryX=0;entryY=0.5;entryDx=0;entryDy=0;fontColor=#00FF00;" edge="1" parent="1" source="1052" target="1065">
                    <mxGeometry relative="1" as="geometry"/>
                </mxCell>
                <mxCell id="1084" style="edgeStyle=orthogonalEdgeStyle;curved=1;html=1;entryX=0;entryY=0.5;entryDx=0;entryDy=0;fontColor=#FFFFFF;" edge="1" parent="1" source="1052" target="1068">
                    <mxGeometry relative="1" as="geometry"/>
                </mxCell>
                <mxCell id="1052" value="Dice Inspected:&lt;br&gt;scorable: false" style="whiteSpace=wrap;html=1;fontSize=13;fillColor=#FFFFCC;strokeColor=none;align=left;verticalAlign=top;fontColor=#000000;" vertex="1" parent="1">
                    <mxGeometry x="12123" y="1525" width="153" height="71" as="geometry"/>
                </mxCell>
                <mxCell id="1053" value="&lt;font style=&quot;font-size: 19px;&quot;&gt;&lt;br&gt;&lt;span style=&quot;color: rgb(255, 255, 255); font-family: Helvetica; font-style: normal; font-variant-ligatures: normal; font-variant-caps: normal; font-weight: 400; letter-spacing: normal; orphans: 2; text-align: center; text-indent: 0px; text-transform: none; widows: 2; word-spacing: 0px; -webkit-text-stroke-width: 0px; text-decoration-thickness: initial; text-decoration-style: initial; text-decoration-color: initial; float: none; display: inline !important;&quot;&gt;&lt;br&gt;Dice Inspector&lt;/span&gt;&lt;br&gt;&lt;/font&gt;" style="sketch=0;html=1;aspect=fixed;strokeColor=#666666;shadow=0;align=center;verticalAlign=bottom;fillColor=#00FFFF;shape=mxgraph.gcp2.play_gear;fontColor=#333333;labelPosition=center;verticalLabelPosition=top;labelBackgroundColor=none;horizontal=1;spacingTop=0;" vertex="1" parent="1">
                    <mxGeometry x="12137.5" y="661" width="123" height="123" as="geometry"/>
                </mxCell>
                <mxCell id="1086" style="edgeStyle=orthogonalEdgeStyle;curved=1;html=1;entryX=0;entryY=0.5;entryDx=0;entryDy=0;fontColor=#FFFFFF;" edge="1" parent="1" source="1054" target="1069">
                    <mxGeometry relative="1" as="geometry"/>
                </mxCell>
                <mxCell id="1054" value="Banks Points:&lt;br&gt;enabled: false" style="whiteSpace=wrap;html=1;fontSize=13;fillColor=#99FF99;strokeColor=none;align=left;verticalAlign=top;labelBackgroundColor=none;fontColor=#000000;" vertex="1" parent="1">
                    <mxGeometry x="12359" y="1158.5" width="153" height="71" as="geometry"/>
                </mxCell>
                <mxCell id="1055" style="edgeStyle=orthogonalEdgeStyle;curved=1;html=1;fontSize=10;fontColor=#FFFFFF;exitX=0.508;exitY=0.992;exitDx=0;exitDy=0;exitPerimeter=0;" edge="1" parent="1" source="1060" target="1057">
                    <mxGeometry relative="1" as="geometry">
                        <mxPoint x="11290.5" y="782" as="sourcePoint"/>
                    </mxGeometry>
                </mxCell>
                <mxCell id="1056" style="edgeStyle=orthogonalEdgeStyle;curved=1;html=1;fontSize=10;fontColor=#FFFFFF;" edge="1" parent="1" source="1057" target="1059">
                    <mxGeometry relative="1" as="geometry"/>
                </mxCell>
                <mxCell id="1057" value="Inspect Scores" style="whiteSpace=wrap;html=1;fontSize=13;fillColor=#1ba1e2;strokeColor=#006EAF;align=left;verticalAlign=top;labelBackgroundColor=none;fontColor=#ffffff;" vertex="1" parent="1">
                    <mxGeometry x="11214" y="885" width="153" height="71" as="geometry"/>
                </mxCell>
                <mxCell id="1058" style="edgeStyle=orthogonalEdgeStyle;curved=1;html=1;entryX=0;entryY=0.5;entryDx=0;entryDy=0;" edge="1" parent="1" source="1059" target="1062">
                    <mxGeometry relative="1" as="geometry"/>
                </mxCell>
                <mxCell id="1059" value="WinnerInspected:&lt;br&gt;winnerFound:false" style="whiteSpace=wrap;html=1;fontSize=13;fillColor=#FFFFCC;strokeColor=none;align=left;verticalAlign=top;fontColor=#000000;" vertex="1" parent="1">
                    <mxGeometry x="11214" y="1533" width="153" height="71" as="geometry"/>
                </mxCell>
                <mxCell id="1060" value="&lt;font style=&quot;font-size: 19px;&quot;&gt;&lt;br&gt;&lt;span style=&quot;color: rgb(255, 255, 255); font-family: Helvetica; font-style: normal; font-variant-ligatures: normal; font-variant-caps: normal; font-weight: 400; letter-spacing: normal; orphans: 2; text-align: center; text-indent: 0px; text-transform: none; widows: 2; word-spacing: 0px; -webkit-text-stroke-width: 0px; text-decoration-thickness: initial; text-decoration-style: initial; text-decoration-color: initial; float: none; display: inline !important;&quot;&gt;&lt;br&gt;Winner Inspector&lt;/span&gt;&lt;br&gt;&lt;/font&gt;" style="sketch=0;html=1;aspect=fixed;strokeColor=#666666;shadow=0;align=center;verticalAlign=bottom;fillColor=#00FFFF;shape=mxgraph.gcp2.play_gear;fontColor=#333333;labelPosition=center;verticalLabelPosition=top;labelBackgroundColor=none;horizontal=1;spacingTop=0;" vertex="1" parent="1">
                    <mxGeometry x="11228.5" y="659" width="123" height="123" as="geometry"/>
                </mxCell>
                <mxCell id="1061" style="edgeStyle=orthogonalEdgeStyle;curved=1;html=1;entryX=0;entryY=0.5;entryDx=0;entryDy=0;exitX=1;exitY=0.5;exitDx=0;exitDy=0;" edge="1" parent="1" source="1064" target="1045">
                    <mxGeometry relative="1" as="geometry"/>
                </mxCell>
                <mxCell id="1062" value="Winner:&lt;br&gt;null" style="whiteSpace=wrap;html=1;fontSize=13;fillColor=#99FF99;strokeColor=none;align=left;verticalAlign=top;labelBackgroundColor=none;fontColor=#000000;" vertex="1" parent="1">
                    <mxGeometry x="11456" y="1172" width="153" height="71" as="geometry"/>
                </mxCell>
                <mxCell id="1085" style="edgeStyle=orthogonalEdgeStyle;curved=1;html=1;entryX=0;entryY=0.5;entryDx=0;entryDy=0;fontColor=#FFFFFF;" edge="1" parent="1" source="1063" target="1069">
                    <mxGeometry relative="1" as="geometry"/>
                </mxCell>
                <mxCell id="1063" value="Dice:&lt;br&gt;3,4,2,2" style="whiteSpace=wrap;html=1;fontSize=13;fillColor=#99FF99;strokeColor=none;align=left;verticalAlign=top;labelBackgroundColor=none;fontColor=#000000;" vertex="1" parent="1">
                    <mxGeometry x="12359" y="1076" width="153" height="71" as="geometry"/>
                </mxCell>
                <mxCell id="1064" value="Dice Roll::&lt;br&gt;requested:true" style="whiteSpace=wrap;html=1;fontSize=13;fillColor=#99FF99;strokeColor=none;align=left;verticalAlign=top;labelBackgroundColor=none;fontColor=#000000;" vertex="1" parent="1">
                    <mxGeometry x="11456" y="1093" width="153" height="71" as="geometry"/>
                </mxCell>
                <mxCell id="1087" style="edgeStyle=orthogonalEdgeStyle;curved=1;html=1;entryX=0;entryY=0.5;entryDx=0;entryDy=0;fontColor=#FFFFFF;" edge="1" parent="1" source="1065" target="1069">
                    <mxGeometry relative="1" as="geometry"/>
                </mxCell>
                <mxCell id="1065" value="Roll Dice:&lt;br&gt;enabled: false" style="whiteSpace=wrap;html=1;fontSize=13;fillColor=#99FF99;strokeColor=none;align=left;verticalAlign=top;labelBackgroundColor=none;fontColor=#000000;" vertex="1" parent="1">
                    <mxGeometry x="12359" y="1240" width="153" height="71" as="geometry"/>
                </mxCell>
                <mxCell id="1088" style="edgeStyle=orthogonalEdgeStyle;curved=1;html=1;entryX=0;entryY=0.5;entryDx=0;entryDy=0;fontColor=#FFFFFF;" edge="1" parent="1" source="1068" target="1069">
                    <mxGeometry relative="1" as="geometry"/>
                </mxCell>
                <mxCell id="1068" value="Farkle:&lt;br&gt;true" style="whiteSpace=wrap;html=1;fontSize=13;fillColor=#99FF99;strokeColor=none;align=left;verticalAlign=top;labelBackgroundColor=none;fontColor=#000000;" vertex="1" parent="1">
                    <mxGeometry x="12359" y="1321" width="153" height="71" as="geometry"/>
                </mxCell>
                <mxCell id="1069" value="" style="whiteSpace=wrap;html=1;movable=1;resizable=1;rotatable=1;deletable=1;editable=1;connectable=1;" vertex="1" parent="1">
                    <mxGeometry x="12621" y="536" width="360" height="280" as="geometry"/>
                </mxCell>
                <mxCell id="1070" value="&lt;font color=&quot;#ffffff&quot;&gt;Game Score&lt;br&gt;Player 1: 0&lt;br&gt;&lt;/font&gt;&lt;span style=&quot;color: rgb(255, 255, 255);&quot;&gt;Player 2: 0&lt;/span&gt;&lt;font color=&quot;#ffffff&quot;&gt;&lt;br&gt;&lt;/font&gt;" style="whiteSpace=wrap;html=1;rounded=0;strokeColor=#000000;fontColor=#808080;fillColor=#333333;align=left;verticalAlign=top;" vertex="1" parent="1">
                    <mxGeometry x="12861" y="561.8" width="90" height="122.22" as="geometry"/>
                </mxCell>
                <mxCell id="1071" value="Current Player" style="rounded=0;whiteSpace=wrap;html=1;fontSize=12;fillColor=none;" vertex="1" parent="1">
                    <mxGeometry x="12641.68" y="561" width="99.32" height="22.97" as="geometry"/>
                </mxCell>
                <mxCell id="1072" value="2" style="whiteSpace=wrap;html=1;fontSize=12;" vertex="1" parent="1">
                    <mxGeometry x="12741" y="561" width="32.27" height="22.94" as="geometry"/>
                </mxCell>
                <mxCell id="1073" value="Roll Dice" style="rounded=1;whiteSpace=wrap;html=1;strokeColor=#23445d;fontSize=10;fontColor=#808080;fillColor=#333333;" vertex="1" parent="1">
                    <mxGeometry x="12641" y="655.02" width="60" height="20" as="geometry"/>
                </mxCell>
                <mxCell id="1074" value="Bank Points" style="rounded=1;whiteSpace=wrap;html=1;strokeColor=#23445d;fontSize=10;fontColor=#808080;fillColor=#333333;verticalAlign=middle;" vertex="1" parent="1">
                    <mxGeometry x="12712" y="655.02" width="60" height="20" as="geometry"/>
                </mxCell>
                <mxCell id="1075" value="Turn Points:" style="rounded=0;whiteSpace=wrap;html=1;fontSize=12;fillColor=none;strokeColor=none;align=right;" vertex="1" parent="1">
                    <mxGeometry x="12641.68" y="718" width="80.41" height="22.97" as="geometry"/>
                </mxCell>
                <mxCell id="1076" value="0" style="whiteSpace=wrap;html=1;fontSize=12;align=left;fillColor=#60a917;strokeColor=#2D7600;fontColor=#ffffff;" vertex="1" parent="1">
                    <mxGeometry x="12729.09" y="718" width="65.59" height="22.94" as="geometry"/>
                </mxCell>
                <mxCell id="1077" value="1" style="whiteSpace=wrap;html=1;aspect=fixed;fontColor=#000000;fillColor=#FFFFFF;strokeColor=#000000;rounded=1;container=0;" vertex="1" parent="1">
                    <mxGeometry x="12641" y="690" width="20" height="20" as="geometry"/>
                </mxCell>
                <mxCell id="1078" value="3" style="whiteSpace=wrap;html=1;aspect=fixed;fillColor=#60a917;strokeColor=#2D7600;rounded=1;container=0;fontColor=#ffffff;" vertex="1" parent="1">
                    <mxGeometry x="12641" y="619" width="20" height="20" as="geometry"/>
                </mxCell>
                <mxCell id="1079" value="4" style="whiteSpace=wrap;html=1;aspect=fixed;fontColor=#ffffff;fillColor=#60a917;strokeColor=#2D7600;rounded=1;container=0;" vertex="1" parent="1">
                    <mxGeometry x="12671" y="619" width="20" height="20" as="geometry"/>
                </mxCell>
                <mxCell id="1080" value="2" style="whiteSpace=wrap;html=1;aspect=fixed;fontColor=#ffffff;fillColor=#60a917;strokeColor=#2D7600;rounded=1;container=0;" vertex="1" parent="1">
                    <mxGeometry x="12701" y="619" width="20" height="20" as="geometry"/>
                </mxCell>
                <mxCell id="1081" value="2" style="whiteSpace=wrap;html=1;aspect=fixed;fontColor=#ffffff;fillColor=#60a917;strokeColor=#2D7600;rounded=1;container=0;" vertex="1" parent="1">
                    <mxGeometry x="12731" y="619" width="20" height="20" as="geometry"/>
                </mxCell>
                <mxCell id="1082" value="5" style="whiteSpace=wrap;html=1;aspect=fixed;fontColor=#000000;fillColor=#FFFFFF;strokeColor=#000000;rounded=1;container=0;" vertex="1" parent="1">
                    <mxGeometry x="12671" y="690" width="20" height="20" as="geometry"/>
                </mxCell>
                <mxCell id="903" value="Farkle :-(" style="rounded=0;whiteSpace=wrap;html=1;strokeColor=none;fontSize=25;fontColor=#FF0000;fillColor=none;fontStyle=1;rotation=-30;" vertex="1" parent="1">
                    <mxGeometry x="12712" y="630" width="120" height="60" as="geometry"/>
                </mxCell>
            </root>
        </mxGraphModel>
    </diagram>
</mxfile>